<svg width="130" height="133" viewBox="0 0 130 133" fill="none" xmlns="http://www.w3.org/2000/svg">
<path d="M129.686 48.492C129.205 45.4176 127.82 42.5559 125.708 40.2709C123.595 37.9859 120.851 36.381 117.824 35.6603C115.899 35.2034 113.904 35.1259 111.95 35.4322C110.427 31.2251 107.468 27.6907 103.595 25.452C95.5537 9.38384 79.6709 -0.539324 63.118 0.187804C52.5122 0.704435 42.4672 5.10522 34.8974 12.5515C27.3275 19.9978 22.762 29.969 22.0709 40.5648C21.6889 46.0242 22.3271 51.5071 23.9529 56.7328C21.7634 57.3965 19.7507 58.543 18.063 60.0876C16.3753 61.6322 15.0555 63.5357 14.2008 65.6579C12.1919 65.4179 10.1547 65.6672 8.26298 66.3847C6.37126 67.1021 4.68111 68.2664 3.33663 69.7783C1.68556 71.6231 0.609532 73.9102 0.240842 76.3583C-0.127848 78.8065 0.226865 81.309 1.26137 83.5583C2.29588 85.8075 3.9651 87.7055 6.06381 89.0188C8.16252 90.3321 10.5993 91.0036 13.0745 90.9506H43.5853L50.0297 101.344L50.1438 101.487L53.6653 130.415C53.7284 130.937 53.9812 131.417 54.3757 131.764C54.7701 132.111 55.2785 132.301 55.804 132.297H74.2673C74.7903 132.297 75.2952 132.106 75.6867 131.759C76.0781 131.413 76.3289 130.934 76.3917 130.415L79.785 101.701C79.8917 101.597 79.9873 101.482 80.0701 101.359L101.656 66.713H114.302C116.537 66.7116 118.746 66.2267 120.776 65.2915C122.807 64.3563 124.611 62.993 126.065 61.2951C127.556 59.5484 128.651 57.4998 129.276 55.2899C129.901 53.0799 130.041 50.761 129.686 48.492ZM13.0745 86.6734C11.0008 86.6943 8.99019 85.9612 7.41662 84.6105C5.84304 83.2599 4.81367 81.3836 4.52 79.3308C4.36532 78.1332 4.46986 76.9163 4.82655 75.7626C5.18323 74.6089 5.78371 73.5454 6.58732 72.644C7.63059 71.4619 8.99108 70.6039 10.5074 70.1717C12.0236 69.7396 13.6321 69.7515 15.1418 70.206C15.4177 70.2909 15.7081 70.3182 15.9951 70.2863C16.282 70.2545 16.5593 70.164 16.8099 70.0207C17.0603 69.8772 17.2791 69.6844 17.4531 69.4541C17.6271 69.2238 17.7526 68.9606 17.8222 68.6805C18.2926 66.7954 19.2542 65.0686 20.6092 63.6761C21.9641 62.2836 23.6639 61.2751 25.5354 60.7533C26.2848 62.5433 27.1516 64.2817 28.1303 65.9573L40.962 86.6591L13.0745 86.6734ZM75.4222 102.357L74.0677 113.762H55.975L54.5493 102.357H75.4222ZM57.7002 128.02L56.4883 118.04H73.5972L72.4139 128.02H57.7002ZM77.1188 98.0793H63.5315C58.3593 84.929 53.9371 71.496 50.2863 57.8448C47.5347 48.0357 48.604 32.7803 52.8812 19.9201C52.9701 19.6533 53.0056 19.3716 52.9857 19.091C52.9658 18.8105 52.8908 18.5367 52.765 18.2851C52.6392 18.0336 52.4651 17.8093 52.2527 17.625C52.0402 17.4407 51.7935 17.3001 51.5267 17.2112C51.2599 17.1222 50.9782 17.0867 50.6977 17.1067C50.4172 17.1266 50.1433 17.2016 49.8918 17.3274C49.6402 17.4531 49.4159 17.6272 49.2316 17.8397C49.0474 18.0521 48.9068 18.2988 48.8178 18.5656C45.0396 29.9003 42.7584 46.7526 46.1659 58.9997C49.734 72.2385 53.9885 85.2826 58.9121 98.0793H53.0665L31.6804 63.7474C28.256 57.936 26.3824 51.3422 26.2392 44.5984C26.0961 37.8547 27.6882 31.1873 30.8629 25.2358C34.0376 19.2844 38.6883 14.2485 44.3689 10.6113C50.0496 6.97417 56.5695 4.85773 63.3034 4.46503C76.5057 3.88048 89.6511 11.2943 97.3786 23.2848C96.3378 23.1059 95.2838 23.0153 94.2277 23.0139C89.4446 23.049 84.8508 24.8876 81.3645 28.1625C77.8782 31.4374 75.756 35.9073 75.4222 40.6789C73.7085 40.2878 71.9331 40.249 70.204 40.5648C67.4395 41.089 64.9166 42.4872 63.0068 44.5536C61.0971 46.6199 59.9016 49.245 59.5964 52.0421C59.3781 53.9067 59.556 55.7965 60.1187 57.5877C60.6813 59.3788 61.616 61.0309 62.8614 62.4357C64.0839 63.7851 65.5759 64.863 67.2409 65.5997C68.906 66.3365 70.7071 66.7157 72.5279 66.713H96.623L77.1188 98.0793ZM122.814 58.5007C121.758 59.7364 120.446 60.7283 118.969 61.4076C117.492 62.087 115.885 62.4378 114.259 62.4357H72.5707C71.3501 62.4406 70.1421 62.1893 69.0246 61.6982C67.9072 61.207 66.9053 60.4868 66.0836 59.5842C65.2175 58.6283 64.5689 57.4961 64.1825 56.2654C63.796 55.0347 63.681 53.7349 63.8451 52.4555C64.0445 50.5707 64.8454 48.8001 66.1293 47.4058C67.4132 46.0115 69.1118 45.0676 70.9739 44.7137C71.5008 44.6187 72.0352 44.571 72.5707 44.5712C73.9772 44.5671 75.3631 44.9099 76.6055 45.5692C76.9467 45.7481 77.3298 45.8316 77.7144 45.8107C78.0991 45.7899 78.4709 45.6656 78.7908 45.4509C79.1106 45.2363 79.3665 44.9392 79.5314 44.5911C79.6964 44.243 79.7643 43.8568 79.7279 43.4734C79.7279 43.0029 79.6566 42.5181 79.6566 42.0476C79.6093 38.4633 80.8835 34.987 83.2362 32.2825C85.5888 29.5779 88.855 27.8344 92.4113 27.3848C95.9676 26.9352 99.565 27.8109 102.517 29.8449C105.468 31.8789 107.568 34.9286 108.414 38.412C108.484 38.6928 108.611 38.9563 108.787 39.1867C108.962 39.417 109.182 39.6093 109.434 39.7519C109.686 39.8946 109.965 39.9846 110.252 40.0165C110.54 40.0484 110.831 40.0215 111.109 39.9375C112.96 39.3775 114.927 39.3136 116.811 39.7522C118.999 40.2884 120.978 41.4599 122.5 43.1193C124.023 44.7786 125.02 46.8514 125.366 49.0765C125.648 50.7385 125.566 52.4418 125.125 54.0689C124.684 55.696 123.896 57.208 122.814 58.5007Z" fill="#C0DDD4"/>
</svg>
