<svg width="82" height="84" viewBox="0 0 82 84" fill="none" xmlns="http://www.w3.org/2000/svg">
<path d="M81.4287 31.0575C81.128 29.136 80.2625 27.3474 78.9422 25.9193C77.622 24.4912 75.9068 23.4881 74.0149 23.0377V23.0377C72.812 22.7521 71.565 22.7037 70.3436 22.8951C69.3921 20.2657 67.5428 18.0567 65.1218 16.6575C60.096 6.6149 50.1693 0.412922 39.8238 0.867378C33.1951 1.19027 26.917 3.94077 22.1859 8.59469C17.4547 13.2486 14.6013 19.4806 14.1693 26.103C13.9305 29.5152 14.3294 32.9419 15.3455 36.208C13.9771 36.6228 12.7192 37.3393 11.6644 38.3047C10.6095 39.2701 9.78467 40.4598 9.2505 41.7862C7.99492 41.6362 6.72169 41.792 5.53937 42.2404C4.35704 42.6888 3.30069 43.4165 2.4604 44.3614C1.42847 45.5144 0.75596 46.9439 0.525528 48.474C0.295097 50.004 0.516793 51.5681 1.16336 52.9739C1.80993 54.3797 2.85319 55.5659 4.16488 56.3868C5.47658 57.2076 6.99954 57.6272 8.54654 57.5941H27.6158L31.6436 64.0901L31.7149 64.1793L33.9158 82.2594C33.9552 82.5855 34.1133 82.8856 34.3598 83.1025C34.6063 83.3195 34.9241 83.4381 35.2525 83.4357H46.7921C47.1189 83.4359 47.4345 83.3163 47.6792 83.0995C47.9238 82.8828 48.0806 82.5839 48.1198 82.2594L50.2406 64.3129C50.3073 64.2481 50.3671 64.1764 50.4188 64.0991L63.9099 42.4456H71.8139C73.2109 42.4447 74.5913 42.1417 75.8602 41.5572C77.1292 40.9727 78.2567 40.1206 79.1654 39.0595C80.0973 37.9677 80.7821 36.6874 81.1728 35.3062C81.5634 33.925 81.6508 32.4756 81.4287 31.0575V31.0575ZM8.54654 54.9208C7.25051 54.9339 5.99387 54.4757 5.01039 53.6316C4.0269 52.7874 3.38355 51.6148 3.2 50.3317C3.10333 49.5832 3.16867 48.8227 3.39159 48.1016C3.61452 47.3806 3.98982 46.7159 4.49208 46.1525C5.14412 45.4137 5.99443 44.8774 6.9421 44.6073C7.88978 44.3372 8.89504 44.3447 9.83861 44.6288C10.0111 44.6818 10.1926 44.6989 10.3719 44.679C10.5512 44.659 10.7246 44.6025 10.8812 44.5129C11.0377 44.4232 11.1745 44.3028 11.2832 44.1588C11.3919 44.0149 11.4704 43.8504 11.5139 43.6753C11.8079 42.4971 12.4089 41.4179 13.2557 40.5476C14.1026 39.6773 15.1649 39.047 16.3347 38.7208C16.803 39.8395 17.3448 40.9261 17.9564 41.9733L25.9762 54.9119L8.54654 54.9208ZM47.5139 64.7228L46.6673 71.8515H35.3594L34.4683 64.7228H47.5139ZM36.4376 80.7624L35.6802 74.5248H46.3733L45.6337 80.7624H36.4376ZM48.5743 62.0495H40.0822C36.8496 53.8306 34.0857 45.435 31.804 36.903C30.0842 30.7723 30.7525 21.2377 33.4257 13.2C33.4813 13.0333 33.5035 12.8572 33.4911 12.6819C33.4786 12.5066 33.4317 12.3354 33.3531 12.1782C33.2745 12.021 33.1657 11.8808 33.0329 11.7656C32.9001 11.6504 32.746 11.5626 32.5792 11.507C32.4125 11.4514 32.2364 11.4292 32.0611 11.4417C31.8857 11.4541 31.7146 11.501 31.5574 11.5796C31.4001 11.6582 31.2599 11.767 31.1448 11.8998C31.0296 12.0326 30.9417 12.1868 30.8861 12.3535C28.5248 19.4377 27.099 29.9703 29.2287 37.6248C31.4588 45.899 34.1178 54.0516 37.1951 62.0495H33.5416L20.1752 40.5921C18.035 36.96 16.864 32.8389 16.7745 28.624C16.685 24.4092 17.6801 20.2421 19.6643 16.5224C21.6485 12.8027 24.5552 9.65531 28.1056 7.38209C31.656 5.10886 35.731 3.78608 39.9396 3.54064C48.1911 3.1753 56.4069 7.80896 61.2366 15.303C60.5861 15.1912 59.9274 15.1345 59.2673 15.1337C56.2779 15.1556 53.4068 16.3048 51.2278 18.3516C49.0488 20.3984 47.7225 23.1921 47.5139 26.1743C46.4428 25.9299 45.3332 25.9056 44.2525 26.103C42.5247 26.4306 40.9479 27.3045 39.7543 28.596C38.5607 29.8874 37.8135 31.5281 37.6228 33.2763C37.4863 34.4417 37.5975 35.6228 37.9492 36.7423C38.3008 37.8617 38.885 38.8943 39.6634 39.7723C40.4274 40.6157 41.3599 41.2893 42.4006 41.7498C43.4413 42.2103 44.567 42.4473 45.705 42.4456H60.7644L48.5743 62.0495ZM77.1337 37.3129C76.4735 38.0853 75.6536 38.7052 74.7305 39.1298C73.8074 39.5544 72.8032 39.7736 71.7871 39.7723H45.7317C44.9688 39.7754 44.2138 39.6183 43.5154 39.3114C42.817 39.0044 42.1908 38.5543 41.6772 37.9901C41.1359 37.3927 40.7306 36.685 40.489 35.9159C40.2475 35.1467 40.1756 34.3343 40.2782 33.5347C40.4028 32.3567 40.9034 31.2501 41.7058 30.3786C42.5082 29.5072 43.5699 28.9172 44.7337 28.6961C45.063 28.6367 45.397 28.6069 45.7317 28.607C46.6108 28.6044 47.4769 28.8187 48.2535 29.2307C48.4667 29.3426 48.7061 29.3947 48.9465 29.3817C49.1869 29.3687 49.4193 29.291 49.6192 29.1568C49.8191 29.0227 49.9791 28.837 50.0822 28.6194C50.1853 28.4019 50.2277 28.1605 50.205 27.9208C50.205 27.6268 50.1604 27.3238 50.1604 27.0298C50.1308 24.7896 50.9272 22.6169 52.3976 20.9265C53.868 19.2362 55.9094 18.1465 58.1321 17.8655C60.3548 17.5845 62.6031 18.1318 64.4479 19.4031C66.2927 20.6743 67.6048 22.5804 68.1337 24.7575C68.1778 24.933 68.257 25.0977 68.3667 25.2417C68.4763 25.3856 68.614 25.5058 68.7715 25.595C68.929 25.6841 69.1029 25.7404 69.2828 25.7603C69.4626 25.7802 69.6446 25.7634 69.8178 25.7109C70.9753 25.3609 72.2044 25.321 73.3822 25.5951C74.7491 25.9302 75.9863 26.6625 76.9377 27.6995C77.8892 28.7366 78.5123 30.0321 78.7287 31.4228C78.9049 32.4615 78.8535 33.5261 78.5781 34.5431C78.3027 35.56 77.8099 36.505 77.1337 37.3129Z" fill="#C0DDD4"/>
</svg>
