<svg width="34" height="26" viewBox="0 0 34 26" fill="none" xmlns="http://www.w3.org/2000/svg">
<path d="M30.8614 4.0891H27.2614C27.2538 4.06342 27.2446 4.03827 27.2336 4.01385L25.3921 0.449493C25.3417 0.352333 25.2655 0.270963 25.1719 0.214358C25.0782 0.157752 24.9708 0.12811 24.8614 0.128701H16.6633C16.5546 0.128838 16.448 0.158823 16.3551 0.215389C16.2622 0.271956 16.1866 0.352932 16.1366 0.449493L14.295 4.01385C14.2841 4.03827 14.2748 4.06342 14.2673 4.0891H3.13859C2.45617 4.09014 1.80201 4.3617 1.31947 4.84424C0.83693 5.32678 0.565379 5.98094 0.564331 6.66335V22.5049C0.565379 23.1874 0.83693 23.8415 1.31947 24.3241C1.80201 24.8066 2.45617 25.0781 3.13859 25.0792H30.8614C31.5438 25.0781 32.1979 24.8066 32.6805 24.3241C33.163 23.8415 33.4346 23.1874 33.4356 22.5049V6.66335C33.4346 5.98094 33.163 5.32678 32.6805 4.84424C32.1979 4.3617 31.5438 4.09014 30.8614 4.0891V4.0891ZM17.0237 1.31682H24.501L25.9307 4.0891H15.594L17.0237 1.31682ZM1.75245 22.5049V6.66335C1.75245 6.29573 1.89849 5.94316 2.15844 5.68321C2.41839 5.42326 2.77096 5.27722 3.13859 5.27722H7.69304V23.8911H3.13859C2.77096 23.8911 2.41839 23.745 2.15844 23.4851C1.89849 23.2251 1.75245 22.8726 1.75245 22.5049ZM32.2475 22.5049C32.2475 22.8726 32.1015 23.2251 31.8415 23.4851C31.5816 23.745 31.229 23.8911 30.8614 23.8911H8.88116V5.27722H30.8614C31.229 5.27722 31.5816 5.42326 31.8415 5.68321C32.1015 5.94316 32.2475 6.29573 32.2475 6.66335V22.5049Z" fill="#F3572B"/>
<path d="M20.7624 7.25742C19.2741 7.25742 17.8193 7.69873 16.5818 8.52556C15.3444 9.3524 14.3799 10.5276 13.8104 11.9026C13.2409 13.2775 13.0919 14.7905 13.3822 16.2502C13.6725 17.7098 14.3892 19.0506 15.4416 20.103C16.4939 21.1553 17.8347 21.872 19.2944 22.1623C20.754 22.4527 22.267 22.3037 23.642 21.7341C25.0169 21.1646 26.1921 20.2001 27.019 18.9627C27.8458 17.7253 28.2871 16.2704 28.2871 14.7822C28.2871 12.7865 27.4943 10.8725 26.0832 9.46137C24.672 8.0502 22.7581 7.25742 20.7624 7.25742V7.25742ZM20.7624 21.1188C19.5091 21.1188 18.284 20.7472 17.2419 20.0509C16.1999 19.3546 15.3877 18.365 14.9081 17.2071C14.4285 16.0492 14.303 14.7751 14.5475 13.546C14.792 12.3168 15.3955 11.1877 16.2817 10.3015C17.1679 9.4153 18.297 8.81179 19.5262 8.56729C20.7553 8.32279 22.0294 8.44828 23.1873 8.92788C24.3452 9.40749 25.3348 10.2197 26.0311 11.2617C26.7274 12.3038 27.099 13.5289 27.099 14.7822C27.099 16.4627 26.4314 18.0745 25.243 19.2628C24.0547 20.4512 22.4429 21.1188 20.7624 21.1188Z" fill="#F3572B"/>
<path d="M20.7624 10.4258C19.9008 10.4258 19.0585 10.6813 18.3421 11.1599C17.6257 11.6386 17.0673 12.319 16.7376 13.115C16.4078 13.9111 16.3216 14.787 16.4897 15.6321C16.6577 16.4771 17.0727 17.2534 17.6819 17.8626C18.2912 18.4719 19.0674 18.8868 19.9125 19.0549C20.7576 19.223 21.6335 19.1367 22.4295 18.807C23.2256 18.4773 23.9059 17.9189 24.3846 17.2025C24.8633 16.4861 25.1188 15.6438 25.1188 14.7822C25.1188 13.6268 24.6598 12.5187 23.8428 11.7017C23.0259 10.8847 21.9178 10.4258 20.7624 10.4258V10.4258ZM20.7624 17.9505C20.1357 17.9505 19.5232 17.7647 19.0022 17.4165C18.4811 17.0684 18.075 16.5736 17.8352 15.9946C17.5954 15.4157 17.5327 14.7787 17.6549 14.1641C17.7772 13.5495 18.0789 12.9849 18.522 12.5418C18.9651 12.0988 19.5297 11.797 20.1443 11.6747C20.7589 11.5525 21.3959 11.6152 21.9748 11.855C22.5538 12.0948 23.0486 12.5009 23.3967 13.022C23.7449 13.543 23.9307 14.1556 23.9307 14.7822C23.9307 15.6225 23.5969 16.4283 23.0027 17.0225C22.4085 17.6167 21.6027 17.9505 20.7624 17.9505Z" fill="#F3572B"/>
<path d="M3.13861 2.10893H6.70297C6.86052 2.10893 7.01163 2.04634 7.12303 1.93493C7.23444 1.82352 7.29703 1.67242 7.29703 1.51487C7.29703 1.35731 7.23444 1.20621 7.12303 1.0948C7.01163 0.983395 6.86052 0.920807 6.70297 0.920807H3.13861C2.98106 0.920807 2.82996 0.983395 2.71855 1.0948C2.60714 1.20621 2.54456 1.35731 2.54456 1.51487C2.54456 1.67242 2.60714 1.82352 2.71855 1.93493C2.82996 2.04634 2.98106 2.10893 3.13861 2.10893V2.10893Z" fill="#F3572B"/>
</svg>
