<svg width="31" height="23" viewBox="0 0 31 23" fill="none" xmlns="http://www.w3.org/2000/svg">
<path d="M30.3178 11.8054C26.7519 9.72618 22.2366 10.0277 22.046 10.045C21.9166 10.0545 21.7955 10.112 21.7064 10.2063C21.6172 10.3005 21.5666 10.4247 21.5643 10.5544V12.9801H17.7316L16.4113 10.1593C16.3692 10.07 16.3025 9.99457 16.219 9.94179C16.1356 9.88901 16.0388 9.8611 15.9401 9.86133H13.8262L10.2396 0.768257C10.1956 0.658692 10.1158 0.567224 10.0133 0.508715C9.91074 0.450206 9.79142 0.428097 9.67471 0.445979C3.04897 1.48558 0.914318 5.57469 0.824219 5.74796C0.789293 5.82033 0.771507 5.89978 0.772238 5.98014V22.1633C0.772238 22.3012 0.827003 22.4334 0.924485 22.5309C1.02197 22.6283 1.15418 22.6831 1.29204 22.6831H30.0544C30.1923 22.6831 30.3245 22.6283 30.422 22.5309C30.5195 22.4334 30.5742 22.3012 30.5742 22.1633V12.2524C30.574 12.162 30.5503 12.0733 30.5053 11.9949C30.4603 11.9165 30.3957 11.8512 30.3178 11.8054ZM17.8079 15.593C16.9104 15.593 14.8138 15.593 12.2079 15.7593V13.4999C12.2079 13.3621 12.1531 13.2299 12.0556 13.1324C11.9582 13.0349 11.8259 12.9801 11.6881 12.9801C11.5502 12.9801 11.418 13.0349 11.3205 13.1324C11.223 13.2299 11.1683 13.3621 11.1683 13.4999V15.8321C8.01912 16.029 4.89052 16.4751 1.81184 17.1663V13.7009C6.66333 11.0084 12.4227 10.9009 13.296 10.9009H15.6074L17.8079 15.593ZM3.49254 4.20242C5.20339 2.80604 7.25425 1.88883 9.43561 1.54449L10.943 5.35638C8.50983 5.43954 6.12327 6.04712 3.9465 7.13756C3.82334 7.1996 3.72987 7.30802 3.68666 7.43897C3.64344 7.56992 3.65401 7.71268 3.71605 7.83583C3.77809 7.95899 3.88651 8.05245 4.01746 8.09567C4.14841 8.13889 4.29116 8.12831 4.41432 8.06628C6.56568 6.9882 8.93527 6.41684 11.3415 6.39598L12.7277 9.86133C10.943 9.91331 6.18164 10.2668 1.8257 12.5192V6.11875C2.27613 5.39559 2.83877 4.74872 3.49254 4.20242ZM16.7128 21.6435V19.0445C16.7128 18.9066 16.6581 18.7744 16.5606 18.6769C16.4631 18.5795 16.3309 18.5247 16.193 18.5247C16.0552 18.5247 15.923 18.5795 15.8255 18.6769C15.728 18.7744 15.6732 18.9066 15.6732 19.0445V21.6435H12.2079V19.0445C12.2079 18.9066 12.1531 18.7744 12.0556 18.6769C11.9582 18.5795 11.8259 18.5247 11.6881 18.5247C11.5502 18.5247 11.418 18.5795 11.3205 18.6769C11.223 18.7744 11.1683 18.9066 11.1683 19.0445V21.6435H1.81184V18.2371C8.88808 16.4767 18.1683 16.6361 18.2618 16.6395H18.293L20.6391 21.6435H16.7128ZM29.5346 21.6435H21.7896L18.2168 14.0197H22.0841C22.222 14.0197 22.3542 13.965 22.4517 13.8675C22.5492 13.77 22.6039 13.6378 22.6039 13.4999V11.0742C23.7856 11.0534 26.9391 11.1574 29.5346 12.5678V21.6435Z" fill="white"/>
</svg>
