<svg width="29" height="33" viewBox="0 0 29 33" fill="none" xmlns="http://www.w3.org/2000/svg">
<path d="M28.3613 6.62374H16.4059V3.05096C16.4146 2.52373 16.2411 2.00965 15.9147 1.5955C15.5883 1.18135 15.129 0.8925 14.6143 0.777697C14.2861 0.709727 13.9468 0.715764 13.6212 0.795368C13.2955 0.874973 12.9917 1.02614 12.7319 1.23789C12.472 1.44964 12.2626 1.71664 12.1189 2.01947C11.9751 2.32231 11.9007 2.65337 11.901 2.98859V6.62374H0.638576C0.500716 6.62374 0.368503 6.6785 0.271021 6.77598C0.173539 6.87347 0.118774 7.00568 0.118774 7.14354C0.118774 7.2814 0.173539 7.41361 0.271021 7.51109C0.368503 7.60858 0.500716 7.66334 0.638576 7.66334H2.54452L4.39848 10.9727C4.43453 11.0378 4.48413 11.0943 4.54391 11.1386C4.60369 11.1828 4.67227 11.2137 4.74501 11.2292L9.47521 12.0817V20.745C9.48056 20.8358 9.50962 20.9235 9.55948 20.9995C9.60934 21.0755 9.67826 21.1371 9.75937 21.1782L10.5148 21.5871C10.5109 21.624 10.5109 21.6611 10.5148 21.698V31.5742H8.95541C8.81755 31.5742 8.68533 31.629 8.58785 31.7265C8.49037 31.824 8.43561 31.9562 8.43561 32.094C8.43561 32.2319 8.49037 32.3641 8.58785 32.4616C8.68533 32.5591 8.81755 32.6138 8.95541 32.6138H19.698C19.8358 32.6138 19.9681 32.5591 20.0655 32.4616C20.163 32.3641 20.2178 32.2319 20.2178 32.094C20.2178 31.9562 20.163 31.824 20.0655 31.7265C19.9681 31.629 19.8358 31.5742 19.698 31.5742H18.4851V19.9168L19.5247 19.5356C19.6258 19.4999 19.7134 19.4337 19.7754 19.3463C19.8375 19.2588 19.8709 19.1542 19.8713 19.047V12.3901L24.0574 11.2188C24.1898 11.1813 24.302 11.0928 24.3693 10.9727L26.2232 7.66334H28.3613C28.4992 7.66334 28.6314 7.60858 28.7289 7.51109C28.8264 7.41361 28.8812 7.2814 28.8812 7.14354C28.8812 7.00568 28.8264 6.87347 28.7289 6.77598C28.6314 6.6785 28.4992 6.62374 28.3613 6.62374ZM12.9406 2.98859C12.9402 2.80719 12.9804 2.62801 13.0583 2.46417C13.1362 2.30033 13.2497 2.15598 13.3905 2.04169C13.5314 1.9274 13.6961 1.84606 13.8724 1.80364C14.0488 1.76122 14.2324 1.75878 14.4099 1.79651C14.6891 1.86401 14.9366 2.02555 15.1107 2.25399C15.2849 2.48242 15.3751 2.76384 15.3663 3.05096V6.62374H12.9406V2.98859ZM11.5544 31.5742V22.1138L17.4455 25.1322V31.5742H11.5544ZM17.4455 23.9505L10.5148 20.4124V11.6416C10.5162 11.6196 10.5162 11.5976 10.5148 11.5757C10.5148 11.5757 10.5148 11.548 10.5148 11.5376C10.5158 11.5191 10.5158 11.5006 10.5148 11.4822C10.5148 11.4822 10.5148 11.4544 10.5148 11.4406L10.4906 11.3921L10.4663 11.3505L10.4282 11.3054L10.4005 11.2742L10.3519 11.2361L10.3208 11.2119L10.2722 11.1841L10.2307 11.1633H10.1821H10.1302L5.17818 10.252L3.72967 7.66334H15.3663V20.3119C15.3665 20.3949 15.3867 20.4767 15.425 20.5503C15.4633 20.624 15.5187 20.6874 15.5866 20.7352C15.6545 20.7831 15.7328 20.814 15.8151 20.8253C15.8973 20.8367 15.9811 20.8281 16.0594 20.8005L17.4455 20.298V23.9505ZM16.4059 19.5703V7.66334H18.8316V18.6831L16.4059 19.5703ZM23.5688 10.2762L19.8713 11.3089V7.66334H25.0346L23.5688 10.2762Z" fill="white"/>
</svg>
