<svg width="23" height="26" viewBox="0 0 23 26" fill="none" xmlns="http://www.w3.org/2000/svg">
<path d="M6.59902 11.0495H3.98516C3.85517 11.0495 3.73051 11.1011 3.6386 11.193C3.54669 11.285 3.49506 11.4096 3.49506 11.5396V14.1535C3.49506 14.2834 3.54669 14.4081 3.6386 14.5C3.73051 14.5919 3.85517 14.6436 3.98516 14.6436H6.59902C6.729 14.6436 6.85366 14.5919 6.94557 14.5C7.03748 14.4081 7.08912 14.2834 7.08912 14.1535V11.5396C7.08912 11.4096 7.03748 11.285 6.94557 11.193C6.85366 11.1011 6.729 11.0495 6.59902 11.0495ZM6.10892 13.6634H4.47525V12.0297H6.10892V13.6634Z" fill="#1F65F7"/>
<path d="M12.8069 11.0495H10.193C10.0631 11.0495 9.9384 11.1011 9.84649 11.193C9.75458 11.285 9.70294 11.4096 9.70294 11.5396V14.1535C9.70294 14.2834 9.75458 14.4081 9.84649 14.5C9.9384 14.5919 10.0631 14.6436 10.193 14.6436H12.8069C12.9369 14.6436 13.0615 14.5919 13.1535 14.5C13.2454 14.4081 13.297 14.2834 13.297 14.1535V11.5396C13.297 11.4096 13.2454 11.285 13.1535 11.193C13.0615 11.1011 12.9369 11.0495 12.8069 11.0495ZM12.3168 13.6634H10.6831V12.0297H12.3168V13.6634Z" fill="#1F65F7"/>
<path d="M18.6881 11.0495H16.0743C15.9443 11.0495 15.8196 11.1011 15.7277 11.193C15.6358 11.285 15.5842 11.4096 15.5842 11.5396V14.1535C15.5842 14.2834 15.6358 14.4081 15.7277 14.5C15.8196 14.5919 15.9443 14.6436 16.0743 14.6436H18.6881C18.8181 14.6436 18.9428 14.5919 19.0347 14.5C19.1266 14.4081 19.1782 14.2834 19.1782 14.1535V11.5396C19.1782 11.4096 19.1266 11.285 19.0347 11.193C18.9428 11.1011 18.8181 11.0495 18.6881 11.0495ZM18.198 13.6634H16.5644V12.0297H18.198V13.6634Z" fill="#1F65F7"/>
<path d="M6.59902 16.9307H3.98516C3.85517 16.9307 3.73051 16.9823 3.6386 17.0742C3.54669 17.1661 3.49506 17.2908 3.49506 17.4208V20.0346C3.49506 20.1646 3.54669 20.2893 3.6386 20.3812C3.73051 20.4731 3.85517 20.5247 3.98516 20.5247H6.59902C6.729 20.5247 6.85366 20.4731 6.94557 20.3812C7.03748 20.2893 7.08912 20.1646 7.08912 20.0346V17.4208C7.08912 17.2908 7.03748 17.1661 6.94557 17.0742C6.85366 16.9823 6.729 16.9307 6.59902 16.9307ZM6.10892 19.5445H4.47525V17.9109H6.10892V19.5445Z" fill="#1F65F7"/>
<path d="M12.8069 16.9307H10.193C10.0631 16.9307 9.9384 16.9823 9.84649 17.0742C9.75458 17.1661 9.70294 17.2908 9.70294 17.4208V20.0346C9.70294 20.1646 9.75458 20.2893 9.84649 20.3812C9.9384 20.4731 10.0631 20.5247 10.193 20.5247H12.8069C12.9369 20.5247 13.0615 20.4731 13.1535 20.3812C13.2454 20.2893 13.297 20.1646 13.297 20.0346V17.4208C13.297 17.2908 13.2454 17.1661 13.1535 17.0742C13.0615 16.9823 12.9369 16.9307 12.8069 16.9307ZM12.3168 19.5445H10.6831V17.9109H12.3168V19.5445Z" fill="#1F65F7"/>
<path d="M18.6881 16.9307H16.0743C15.9443 16.9307 15.8196 16.9823 15.7277 17.0742C15.6358 17.1661 15.5842 17.2908 15.5842 17.4208V20.0346C15.5842 20.1646 15.6358 20.2893 15.7277 20.3812C15.8196 20.4731 15.9443 20.5247 16.0743 20.5247H18.6881C18.8181 20.5247 18.9428 20.4731 19.0347 20.3812C19.1266 20.2893 19.1782 20.1646 19.1782 20.0346V17.4208C19.1782 17.2908 19.1266 17.1661 19.0347 17.0742C18.9428 16.9823 18.8181 16.9307 18.6881 16.9307ZM18.198 19.5445H16.5644V17.9109H18.198V19.5445Z" fill="#1F65F7"/>
<path d="M22.2822 2.84523H19.5049V2.27018C19.5049 1.81611 19.3246 1.38064 19.0035 1.05956C18.6824 0.738485 18.2469 0.558105 17.7929 0.558105H17.6197C17.1662 0.558971 16.7316 0.739732 16.4112 1.06072C16.0908 1.3817 15.9109 1.81668 15.9109 2.27018V2.84523H13.297V2.27018C13.297 1.81611 13.1166 1.38064 12.7956 1.05956C12.4745 0.738485 12.039 0.558105 11.5849 0.558105H11.4118C10.9583 0.558971 10.5236 0.739732 10.2033 1.06072C9.8829 1.3817 9.70297 1.81668 9.70297 2.27018V2.84523H6.76238V2.27018C6.76238 1.81611 6.582 1.38064 6.26092 1.05956C5.93984 0.738485 5.50437 0.558105 5.0503 0.558105H4.87713C4.42362 0.558971 3.98899 0.739732 3.66862 1.06072C3.34825 1.3817 3.16832 1.81668 3.16832 2.27018V2.84523H0.717821C0.587839 2.84523 0.46318 2.89687 0.371269 2.98878C0.279358 3.08069 0.227722 3.20535 0.227722 3.33533V24.8997C0.227722 25.0297 0.279358 25.1543 0.371269 25.2462C0.46318 25.3382 0.587839 25.3898 0.717821 25.3898H22.2822C22.4122 25.3898 22.5368 25.3382 22.6287 25.2462C22.7206 25.1543 22.7723 25.0297 22.7723 24.8997V3.33533C22.7723 3.20535 22.7206 3.08069 22.6287 2.98878C22.5368 2.89687 22.4122 2.84523 22.2822 2.84523ZM16.8911 2.27018C16.8911 2.07608 16.9682 1.88992 17.1055 1.75267C17.2427 1.61541 17.4289 1.5383 17.623 1.5383H17.7961C17.9897 1.53917 18.175 1.61666 18.3115 1.75382C18.4481 1.89098 18.5248 2.07664 18.5248 2.27018V4.73048C18.5248 4.92459 18.4476 5.11075 18.3104 5.248C18.1731 5.38525 17.987 5.46236 17.7929 5.46236H17.6197C17.4262 5.4615 17.2408 5.38401 17.1043 5.24685C16.9677 5.10969 16.8911 4.92402 16.8911 4.73048V2.27018ZM10.6832 2.27018C10.6832 2.07608 10.7603 1.88992 10.8975 1.75267C11.0348 1.61541 11.2209 1.5383 11.415 1.5383H11.5882C11.7818 1.53917 11.9671 1.61666 12.1036 1.75382C12.2402 1.89098 12.3168 2.07664 12.3168 2.27018V4.73048C12.3168 4.92459 12.2397 5.11075 12.1025 5.248C11.9652 5.38525 11.7791 5.46236 11.5849 5.46236H11.4118C11.2182 5.4615 11.0329 5.38401 10.8964 5.24685C10.7598 5.10969 10.6832 4.92402 10.6832 4.73048V2.27018ZM4.14851 2.27018C4.14851 2.07608 4.22562 1.88992 4.36288 1.75267C4.50013 1.61541 4.68629 1.5383 4.8804 1.5383H5.05356C5.2471 1.53917 5.43242 1.61666 5.56897 1.75382C5.70552 1.89098 5.78218 2.07664 5.78218 2.27018V4.73048C5.78218 4.92459 5.70507 5.11075 5.56781 5.248C5.43056 5.38525 5.2444 5.46236 5.0503 5.46236H4.87713C4.68359 5.4615 4.49827 5.38401 4.36172 5.24685C4.22517 5.10969 4.14851 4.92402 4.14851 4.73048V2.27018ZM21.7921 24.4096H1.20792V3.82543H3.16832V4.72721C3.16832 5.18129 3.3487 5.61676 3.66977 5.93784C3.99085 6.25891 4.42632 6.43929 4.8804 6.43929H5.05356C5.5065 6.43843 5.94064 6.25812 6.26092 5.93784C6.5812 5.61756 6.76151 5.18342 6.76238 4.73048V3.82543H9.70297V4.72721C9.70297 5.18129 9.88335 5.61676 10.2044 5.93784C10.5255 6.25891 10.961 6.43929 11.415 6.43929H11.5882C12.0412 6.43843 12.4753 6.25812 12.7956 5.93784C13.1159 5.61756 13.2962 5.18342 13.297 4.73048V3.82543H15.9109V4.72721C15.9109 5.18129 16.0913 5.61676 16.4123 5.93784C16.7334 6.25891 17.1689 6.43929 17.623 6.43929H17.7961C18.2491 6.43843 18.6832 6.25812 19.0035 5.93784C19.3238 5.61756 19.5041 5.18342 19.5049 4.73048V3.82543H21.7921V24.4096Z" fill="#1F65F7"/>
</svg>
