<svg width="28" height="28" viewBox="0 0 28 28" fill="none" xmlns="http://www.w3.org/2000/svg">
<path d="M24.805 21.7535C26.2426 19.6297 27.0594 17.0812 27.0594 14.3367C27.0594 6.95249 21.0475 0.940613 13.6634 0.940613C6.27922 0.940613 0.267334 6.95249 0.267334 14.3367C0.267334 21.7208 6.27922 27.7327 13.6634 27.7327C18.1723 27.7327 22.1584 25.4782 24.6089 22.0475C24.6416 22.0149 24.6416 22.0149 24.6743 21.9822C24.7069 21.9495 24.7723 21.8515 24.805 21.7535ZM26.0792 14.3367C26.0792 15.7089 25.8505 17.0159 25.4584 18.2248C25.4911 16.9832 25.2951 15.7416 24.7396 15.0555C24.1515 14.3367 23.4 14.3693 22.8119 14.4347C21.9951 14.5 21.2109 14.5654 20.296 12.6376C19.5772 11.102 20.2634 10.5139 21.4396 9.72972C22.2891 9.17428 23.4 8.39012 22.6159 6.98517C21.897 5.71091 20.8188 5.74358 19.9366 5.74358C19.3812 5.74358 18.8584 5.74358 18.401 5.44952C17.6822 4.9921 17.1267 4.0119 16.5713 3.09705C16.3753 2.77032 16.1792 2.44358 16.0159 2.14952C21.7663 3.29309 26.0792 8.32477 26.0792 14.3367ZM10.2 2.41091L10.2327 2.44358C10.9842 3.06438 12.8465 4.9921 12.6505 6.62576C12.5852 7.18121 11.4743 7.63863 10.5267 8.09606C9.18714 8.68418 7.65149 9.37032 7.35743 10.7099C7.16139 11.5921 7.55347 12.5723 8.59902 13.7485C10.9515 16.4277 12.9119 17.0159 14.3495 17.4733C15.4277 17.8 16.1465 18.0287 16.6366 18.9763C17.2574 20.1198 16.8 20.5772 15.5584 21.6555C14.4149 22.6683 12.8465 24.0406 12.6505 26.7525C11.8337 26.6871 11.0495 26.5565 10.2654 26.3277C10.396 22.4069 8.72971 21.1327 7.48813 20.1852C7.09605 19.8911 6.73664 19.597 6.5406 19.303C6.37724 19.0416 6.73664 18.4208 7.06337 17.8654C7.55347 17.0159 8.10892 16.0357 7.74951 15.0881C7.48813 14.402 6.83466 13.9119 5.72377 13.5198C1.99902 12.2782 2.48912 8.94556 2.52179 8.81487C2.52179 8.81487 2.52179 8.81487 2.52179 8.7822C4.12278 5.71091 6.86733 3.39111 10.2 2.41091ZM1.24753 14.3367C1.24753 13.0951 1.44357 11.8862 1.7703 10.7753C2.12971 12.0822 3.07723 13.6505 5.46238 14.4347C6.27922 14.6961 6.76931 15.0228 6.90001 15.4149C7.09605 15.9376 6.67129 16.6565 6.27922 17.3753C5.78912 18.1921 5.29902 19.0743 5.75644 19.8258C6.01783 20.2832 6.47526 20.6099 6.93268 20.9693C8.0109 21.7862 9.3505 22.799 9.31783 26.001C4.61288 24.204 1.24753 19.6624 1.24753 14.3367ZM13.6634 26.7525C13.8267 24.4654 15.101 23.3545 16.2119 22.3416C17.3228 21.3614 18.499 20.3159 17.4861 18.4535C16.7673 17.1466 15.7871 16.8525 14.6109 16.4931C13.2386 16.0683 11.5069 15.5129 9.31783 13.0624C8.53367 12.1802 8.17426 11.4287 8.30496 10.8733C8.501 10.0238 9.77526 9.46834 10.9188 8.94556C12.2257 8.35744 13.5 7.802 13.6307 6.72378C13.8594 4.82873 12.1931 2.93368 11.3436 2.11685C12.0951 1.98616 12.8792 1.88814 13.6634 1.88814C14.0228 1.88814 14.3822 1.92081 14.7089 1.92081C14.7416 1.95348 14.7416 1.98616 14.7743 1.98616C15.101 2.34556 15.4604 2.93368 15.8198 3.5218C16.3753 4.502 17.0287 5.61289 17.9436 6.20101C18.6297 6.65843 19.3485 6.65843 20.002 6.62576C20.9168 6.62576 21.4069 6.65844 21.799 7.37725C22.1258 7.93269 21.897 8.16141 20.9168 8.84754C19.8713 9.53368 18.3357 10.6119 19.4139 12.997C20.5901 15.5456 21.897 15.4475 22.8772 15.3495C23.4327 15.3169 23.6941 15.2842 23.9555 15.6109C24.805 16.7218 24.4456 20.2178 24.0208 21.198C21.799 24.5307 17.9762 26.7525 13.6634 26.7525Z" fill="#1F65F7"/>
</svg>
