<svg width="20" height="33" viewBox="0 0 20 33" fill="none" xmlns="http://www.w3.org/2000/svg">
<path d="M19.8599 31.3822C17.9336 28.8701 16.3283 26.1275 15.0812 23.2179H16.0446C16.1824 23.2179 16.3146 23.1631 16.4121 23.0656C16.5096 22.9681 16.5644 22.8359 16.5644 22.6981C16.5644 22.5602 16.5096 22.428 16.4121 22.3305C16.3146 22.233 16.1824 22.1783 16.0446 22.1783H14.6758C14.4243 21.4889 14.2091 20.7867 14.0312 20.0748C13.8926 19.5134 13.7678 18.9416 13.65 18.3664H14.3119C14.4497 18.3664 14.582 18.3116 14.6794 18.2141C14.7769 18.1167 14.8317 17.9844 14.8317 17.8466C14.8317 17.7087 14.7769 17.5765 14.6794 17.479C14.582 17.3815 14.4497 17.3268 14.3119 17.3268H13.4456C12.8723 13.9461 12.525 10.5309 12.4059 7.10401V3.98519C12.4059 3.84733 12.3512 3.71512 12.2537 3.61764C12.1562 3.52016 12.024 3.46539 11.8861 3.46539H11.0198V1.21292C11.0198 1.07506 10.965 0.942843 10.8676 0.845362C10.7701 0.74788 10.6379 0.693115 10.5 0.693115C10.3621 0.693115 10.2299 0.74788 10.1325 0.845362C10.035 0.942843 9.98021 1.07506 9.98021 1.21292V3.46539H9.11387C8.97601 3.46539 8.8438 3.52016 8.74632 3.61764C8.64883 3.71512 8.59407 3.84733 8.59407 3.98519V7.08321C8.42149 10.5183 8.0361 13.9394 7.44011 17.3268H6.68813C6.55027 17.3268 6.41805 17.3815 6.32057 17.479C6.22309 17.5765 6.16833 17.7087 6.16833 17.8466C6.16833 17.9844 6.22309 18.1167 6.32057 18.2141C6.41805 18.3116 6.55027 18.3664 6.68813 18.3664H7.23912C7.1213 18.9416 6.99308 19.5134 6.85446 20.0748C6.67659 20.7868 6.46144 21.4889 6.20991 22.1783H4.60892C4.47106 22.1783 4.33885 22.233 4.24136 22.3305C4.14388 22.428 4.08912 22.5602 4.08912 22.6981C4.08912 22.8359 4.14388 22.9681 4.24136 23.0656C4.33885 23.1631 4.47106 23.2179 4.60892 23.2179H5.82179C4.56973 26.1279 2.95979 28.8705 1.02922 31.3822C0.967768 31.4586 0.929187 31.5509 0.917928 31.6483C0.906669 31.7457 0.923192 31.8443 0.965589 31.9327C1.00799 32.0211 1.07453 32.0958 1.15753 32.148C1.24053 32.2002 1.33661 32.2278 1.43466 32.2278H6.48714C6.55749 32.2278 6.62712 32.2136 6.69182 32.186C6.75652 32.1584 6.81494 32.1179 6.86354 32.067C6.91214 32.0162 6.94991 31.956 6.97456 31.8901C6.99921 31.8242 7.01022 31.754 7.00694 31.6837V31.6075C7.00694 31.5797 7.00694 31.5555 7.00694 31.5278C7.00694 30.6142 7.36985 29.7381 8.01583 29.0921C8.66181 28.4461 9.53794 28.0832 10.4515 28.0832C11.365 28.0832 12.2412 28.4461 12.8872 29.0921C13.5331 29.7381 13.896 30.6142 13.896 31.5278C13.896 31.5555 13.896 31.5832 13.896 31.6109V31.6872C13.8933 31.7557 13.9041 31.8242 13.9279 31.8885C13.9517 31.9529 13.988 32.0119 14.0347 32.0621C14.0814 32.1124 14.1376 32.1529 14.2 32.1813C14.2625 32.2098 14.3299 32.2255 14.3985 32.2278H19.4545C19.5525 32.2278 19.6486 32.2002 19.7316 32.148C19.8146 32.0958 19.8811 32.0211 19.9235 31.9327C19.9659 31.8443 19.9825 31.7457 19.9712 31.6483C19.9599 31.5509 19.9214 31.4586 19.8599 31.3822ZM9.63367 7.10401V4.505H11.3663V7.11787C11.4904 10.5398 11.8377 13.95 12.4059 17.3268H8.49704C9.08248 13.9453 9.46205 10.5315 9.63367 7.10401ZM7.86288 20.3243C8.02229 19.6832 8.16437 19.0248 8.29951 18.3664H12.5931C12.7248 19.0283 12.8668 19.6832 13.0228 20.3243C13.1787 20.9654 13.3693 21.5684 13.5738 22.1783H7.31189C7.52328 21.5684 7.71041 20.9515 7.86288 20.3243ZM14.9149 31.1882C14.8316 30.059 14.3244 29.0031 13.4949 28.2325C12.6654 27.4619 11.5751 27.0336 10.4428 27.0336C9.31061 27.0336 8.2203 27.4619 7.3908 28.2325C6.5613 29.0031 6.05402 30.059 5.9708 31.1882H2.47773C4.27808 28.7213 5.77219 26.045 6.92724 23.2179H13.9584C15.1135 26.045 16.6076 28.7213 18.4079 31.1882H14.9149Z" fill="white"/>
</svg>
