<svg width="23" height="23" viewBox="0 0 23 23" fill="none" xmlns="http://www.w3.org/2000/svg">
<path d="M11.5 0C5.14879 0 0 5.14879 0 11.5C0 17.8512 5.14879 23 11.5 23C17.8512 23 23 17.8512 23 11.5C23 5.14879 17.8512 0 11.5 0ZM14.8787 6.59165C14.3321 6.59165 13.7819 6.59165 13.2355 6.59165C12.8897 6.56926 12.5329 6.83326 12.4697 7.1791C12.4622 7.77775 12.466 8.37617 12.466 8.97481C13.2689 8.97855 14.0721 8.97481 14.8752 8.97855C14.8158 9.84468 14.708 10.7073 14.5816 11.5625C13.8715 11.57 13.1614 11.5625 12.4513 11.5662C12.4438 14.1203 12.455 16.6707 12.4475 19.225C11.3916 19.2288 10.3396 19.2213 9.28358 19.2288C9.26493 16.6747 9.28358 14.1206 9.27239 11.5662C8.75933 11.5625 8.24254 11.57 7.72948 11.5625C7.73321 10.7036 7.72948 9.84492 7.72948 8.98974C8.24254 8.98228 8.75933 8.98974 9.27239 8.98601C9.28731 8.15322 9.25746 7.3167 9.28731 6.48391C9.34305 5.81833 9.59212 5.15299 10.0868 4.69566C10.6854 4.12687 11.5329 3.93354 12.3361 3.91115C13.1838 3.90368 14.0315 3.90742 14.879 3.90742C14.8825 4.8034 14.8825 5.69566 14.8787 6.59165Z" fill="#273043"/>
</svg>
