<svg width="50" height="50" viewBox="0 0 50 50" fill="none" xmlns="http://www.w3.org/2000/svg">
<path d="M40.4385 24.2532C40.2055 24.1032 39.9136 24.082 39.6628 24.1978L29.657 28.8038H23.2435C22.7954 28.8038 22.4327 29.1685 22.4327 29.619V38.3147C22.4327 38.5505 22.5181 38.6929 22.6517 38.8913L29.5597 49.6408C29.7105 49.8652 29.9624 50 30.2316 50H34.1839C34.4564 50 34.711 49.8625 34.8607 49.6332C35.011 49.4044 35.0364 49.1147 34.9283 48.8631L31.0343 39.7533L39.6623 43.7141C39.7698 43.7636 39.8844 43.7881 39.999 43.7881C40.152 43.7881 40.3044 43.7446 40.4374 43.6587C40.6693 43.5087 40.8098 43.2506 40.8098 42.9728V24.9396C40.8109 24.6619 40.6703 24.4032 40.4385 24.2532ZM24.0543 30.4348H29.4597C29.4597 30.5244 29.4597 30.6109 29.4597 30.7065V37.5H24.0543V30.4348ZM30.6624 48.3696L24.456 39.1304H29.0132C29.0213 39.1565 29.0267 39.1832 29.0381 39.2092L32.9537 48.3696H30.6624ZM39.1893 41.7044L31.0813 37.9821V29.9418L39.1893 26.2092V41.7044Z" fill="#1F65F7"/>
<path d="M44.6454 30.8484C44.8081 30.8484 44.9725 30.7995 45.1152 30.6973L48.6692 28.1533C49.034 27.8925 49.1189 27.3833 48.8594 27.0164C48.6005 26.6501 48.0935 26.5637 47.7286 26.8251L44.1746 29.3691C43.8098 29.6299 43.7244 30.1392 43.9844 30.506C44.1427 30.7288 44.3919 30.8484 44.6454 30.8484Z" fill="#1F65F7"/>
<path d="M49.1891 32.6088H44.8649C44.4168 32.6088 44.0541 32.9736 44.0541 33.4243C44.0541 33.875 44.4168 34.2398 44.8649 34.2398H49.1891C49.6367 34.2398 49.9999 33.875 49.9999 33.4243C49.9999 32.9736 49.6367 32.6088 49.1891 32.6088Z" fill="#1F65F7"/>
<path d="M48.6692 38.7673L45.1152 36.2234C44.7514 35.963 44.2444 36.0478 43.9844 36.4147C43.7249 36.7815 43.8098 37.2907 44.1746 37.5516L47.7286 40.0955C47.8713 40.1977 48.0351 40.2466 48.1984 40.2466C48.4519 40.2466 48.7016 40.1276 48.8594 39.9042C49.1189 39.5379 49.034 39.0287 48.6692 38.7673Z" fill="#1F65F7"/>
<path d="M16.1144 22.5658C18.3106 22.5658 20.4198 23.0501 22.383 24.005C22.7862 24.2017 23.2711 24.0316 23.4657 23.6262C23.6608 23.2207 23.4922 22.7332 23.0889 22.5376C20.9035 21.4745 18.5571 20.9354 16.1139 20.9354C7.22857 20.9354 0 28.2446 0 37.2282C0 37.6788 0.362699 38.0434 0.810802 38.0434H17.8376C18.2857 38.0434 18.6484 37.6788 18.6484 37.2282C18.6484 36.7777 18.2857 36.413 17.8376 36.413H1.64377C2.06322 28.7055 8.39342 22.5658 16.1144 22.5658Z" fill="#1F65F7"/>
<path d="M16.4366 18.9843C21.6435 18.9843 25.8797 14.7261 25.8797 9.49187C25.8797 4.25816 21.6435 0 16.4366 0C11.2323 0 6.99774 4.25762 6.99774 9.49187C6.99774 14.7261 11.2318 18.9843 16.4366 18.9843ZM16.4366 1.63044C20.7495 1.63044 24.2581 5.15708 24.2581 9.49187C24.2581 13.8272 20.7495 17.3538 16.4366 17.3538C12.1263 17.3538 8.61935 13.8267 8.61935 9.49187C8.61935 5.15708 12.1263 1.63044 16.4366 1.63044Z" fill="#1F65F7"/>
</svg>
