<svg width="31" height="19" viewBox="0 0 31 19" fill="none" xmlns="http://www.w3.org/2000/svg">
<path d="M29.675 0.0498047H1.32499C1.18575 0.0498047 1.05221 0.105117 0.953757 0.203574C0.8553 0.30203 0.799988 0.435566 0.799988 0.574805V18.4248C0.799988 18.564 0.8553 18.6976 0.953757 18.796C1.05221 18.8945 1.18575 18.9498 1.32499 18.9498H29.675C29.8142 18.9498 29.9478 18.8945 30.0462 18.796C30.1447 18.6976 30.2 18.564 30.2 18.4248V0.574805C30.2 0.435566 30.1447 0.30203 30.0462 0.203574C29.9478 0.105117 29.8142 0.0498047 29.675 0.0498047ZM1.84999 1.7718L10.299 9.3738L1.84999 17.1998V1.7718ZM15.5 12.6498L2.67249 1.0998H28.3275L15.5 12.6498ZM11.083 10.0808L15.15 13.7418C15.2462 13.8279 15.3709 13.8755 15.5 13.8755C15.6291 13.8755 15.7537 13.8279 15.85 13.7418L19.8365 10.1508L28.5165 17.8998H2.63749L11.083 10.0808ZM20.624 9.4473L29.15 1.7718V17.0598L20.624 9.4473Z" fill="white"/>
</svg>
