<svg width="23" height="23" viewBox="0 0 23 23" fill="none" xmlns="http://www.w3.org/2000/svg">
<path d="M14.4965 5.70654H8.44636C6.93237 5.70654 5.70056 6.93835 5.70056 8.45235V14.558C5.70056 16.072 6.93237 17.3038 8.44636 17.3038H14.4965C16.0105 17.3038 17.2423 16.072 17.2423 14.558V8.45235C17.2423 6.93835 16.0105 5.70654 14.4965 5.70654ZM11.483 15.1611C9.43074 15.1611 7.7612 13.5092 7.7612 11.4789C7.7612 9.44861 9.43097 7.79679 11.483 7.79679C13.535 7.79679 15.2048 9.44861 15.2048 11.4789C15.2048 13.5092 13.5352 15.1611 11.483 15.1611ZM15.271 8.52184C14.7873 8.52184 14.3953 8.12982 14.3953 7.64614C14.3953 7.16247 14.7873 6.77044 15.271 6.77044C15.7547 6.77044 16.1467 7.16247 16.1467 7.64614C16.1467 8.12982 15.7547 8.52184 15.271 8.52184Z" fill="#273043"/>
<path d="M11.5 0C5.14879 0 0 5.14879 0 11.5C0 17.8512 5.14879 23 11.5 23C17.8512 23 23 17.8512 23 11.5C23 5.14879 17.8512 0 11.5 0ZM18.6005 14.5581C18.6005 16.8211 16.7593 18.6621 14.4965 18.6621H8.44636C6.1833 18.6621 4.34235 16.8209 4.34235 14.5581V8.45243C4.34235 6.18937 6.18354 4.34841 8.44636 4.34841H14.4965C16.7596 4.34841 18.6005 6.1896 18.6005 8.45243V14.5581Z" fill="#273043"/>
<path d="M11.483 9.15234C10.1782 9.15234 9.11682 10.196 9.11682 11.4788C9.11682 12.7617 10.1782 13.8053 11.483 13.8053C12.7878 13.8053 13.8491 12.7617 13.8491 11.4788C13.8491 10.196 12.7878 9.15234 11.483 9.15234Z" fill="#273043"/>
</svg>
