<svg width="112" height="20" viewBox="0 0 112 20" fill="none" xmlns="http://www.w3.org/2000/svg">
<path d="M0.816 10.504C0.816 15.952 4.68 19.432 9.984 19.432C15.288 19.432 19.152 15.952 19.152 10.504C19.152 5.056 15.288 1.576 9.984 1.576C4.68 1.576 0.816 5.056 0.816 10.504ZM4.704 10.504C4.704 7.336 6.792 5.032 9.984 5.032C13.176 5.032 15.264 7.336 15.264 10.504C15.264 13.672 13.176 15.976 9.984 15.976C6.792 15.976 4.704 13.672 4.704 10.504ZM37.0808 8.92H30.4328V12.376H33.4808V15.136C32.7848 15.52 31.5848 15.976 29.9528 15.976C26.7608 15.976 24.6728 13.672 24.6728 10.504C24.6728 7.336 26.7608 5.032 29.9528 5.032C31.8488 5.032 33.0728 5.584 34.0807 6.64L36.7208 3.76C35.0168 2.176 32.6407 1.576 29.9528 1.576C24.6488 1.576 20.7848 5.056 20.7848 10.504C20.7848 15.952 24.6488 19.432 29.9528 19.432C32.4488 19.432 34.8728 18.952 37.0808 17.8V8.92ZM51.3444 3.352C49.9044 2.08 48.0564 1.576 46.1364 1.576C42.8004 1.576 39.6564 3.472 39.6564 7.096C39.6564 12.76 47.6244 11.08 47.6244 14.2C47.6244 15.4 46.2564 15.976 45.0324 15.976C43.7844 15.976 42.5364 15.376 41.7684 14.368L39.1044 17.296C40.7124 18.784 42.6324 19.432 44.8164 19.432C48.3204 19.432 51.3684 17.632 51.3684 13.84C51.3684 7.888 43.5444 9.88 43.5444 6.784C43.5444 5.512 45.0084 5.032 46.0644 5.032C46.9764 5.032 48.1764 5.392 48.7764 6.16L51.3444 3.352ZM61.6457 7.336H58.4777V3.88H54.8777V7.336H52.5737V10.216H54.8777V15.76C54.8777 18.304 56.7257 19.288 59.1257 19.288C59.9657 19.288 60.8537 19.216 61.6457 18.928V15.928C61.3337 16.216 60.5657 16.264 60.1817 16.264C58.6217 16.264 58.4777 15.352 58.4777 14.104V10.216H61.6457V7.336ZM74.7071 7.336H71.1071V13.144C71.1071 14.656 70.8191 16.12 68.9471 16.12C67.0991 16.12 67.0751 14.392 67.0751 13.048V7.336H63.4751V13.768C63.4751 16.888 64.1471 19.288 67.7951 19.288C69.5471 19.288 70.7231 18.328 71.2031 17.416H71.2511V19H74.7071V7.336ZM89.4964 0.855999H85.8964V8.584H85.8484C85.0324 7.456 83.6404 7.048 82.1524 7.048C78.8404 7.048 76.8244 10.024 76.8244 13.264C76.8244 16.792 79.1044 19.288 82.5604 19.288C84.1924 19.288 85.5844 18.304 86.1364 17.464H86.1844V19H89.4964V0.855999ZM86.1844 13.168C86.1844 14.92 85.1044 16.12 83.3044 16.12C81.5044 16.12 80.4244 14.92 80.4244 13.168C80.4244 11.416 81.5044 10.216 83.3044 10.216C85.1044 10.216 86.1844 11.416 86.1844 13.168ZM92.4216 19H96.0216V7.336H92.4216V19ZM92.1336 3.664C92.1336 4.816 93.0696 5.752 94.2216 5.752C95.3736 5.752 96.3096 4.816 96.3096 3.664C96.3096 2.512 95.3736 1.576 94.2216 1.576C93.0696 1.576 92.1336 2.512 92.1336 3.664ZM98.1759 13.168C98.1759 16.888 101.056 19.288 104.656 19.288C108.256 19.288 111.136 16.888 111.136 13.168C111.136 9.448 108.256 7.048 104.656 7.048C101.056 7.048 98.1759 9.448 98.1759 13.168ZM101.776 13.168C101.776 11.416 102.856 10.216 104.656 10.216C106.456 10.216 107.536 11.416 107.536 13.168C107.536 14.92 106.456 16.12 104.656 16.12C102.856 16.12 101.776 14.92 101.776 13.168Z" fill="#273043"/>
</svg>
