<svg width="50" height="50" viewBox="0 0 50 50" fill="none" xmlns="http://www.w3.org/2000/svg">
<path d="M49.8246 23.3189C49.4623 21.8589 48.5717 20.633 47.3171 19.8663C46.0609 19.099 44.5914 18.8843 43.1789 19.2599C40.5385 19.9625 38.8519 22.5586 39.1139 25.2812L33.5844 26.7533C33.6425 26.3256 33.683 25.8921 33.683 25.4478C33.683 20.2826 29.6179 16.0804 24.6212 16.0804C24.2545 16.0804 23.8951 16.1096 23.5395 16.1537L25.143 11.2037C25.4521 11.2593 25.7634 11.2891 26.0741 11.2891C26.9072 11.2891 27.7347 11.0898 28.5018 10.6947C29.8068 10.0231 30.7805 8.86532 31.2442 7.43559C32.1991 4.48509 30.6548 1.28036 27.8017 0.292091C24.9486 -0.695035 21.8473 0.901316 20.8907 3.85239C20.025 6.52405 21.2153 9.39897 23.5688 10.6523L21.6917 16.4486C21.6751 16.5007 21.664 16.5533 21.6573 16.606C18.2503 17.8302 15.7689 21.095 15.5828 24.9817L10.8309 23.3333C11.2812 20.637 9.77959 17.9224 7.19567 17.0263C5.81204 16.5465 4.33258 16.6524 3.02761 17.3235C1.72152 17.9945 0.747219 19.1511 0.284162 20.5797C-0.673523 23.5291 0.868522 26.735 3.72164 27.7267C4.29547 27.9253 4.87873 28.0198 5.45311 28.0198C7.46653 28.0198 9.36306 26.8569 10.3075 24.964L15.6692 26.8237C16.3161 31.3379 20.0782 34.8163 24.6223 34.8163C24.9862 34.8163 25.3435 34.7877 25.6958 34.7448L23.6807 38.9767C22.579 38.616 21.4009 38.62 20.2881 39.0116C18.9083 39.4966 17.7934 40.5089 17.1492 41.8614C16.5044 43.2138 16.4075 44.7443 16.8772 46.1712C17.3464 47.5986 18.3256 48.7512 19.6351 49.4171C20.3961 49.8048 21.2159 50 22.0401 50C22.6322 50 23.2271 49.8992 23.8048 49.696C25.1851 49.2098 26.3001 48.1981 26.9432 46.8468C27.5884 45.4932 27.6848 43.9621 27.2151 42.5359C26.8357 41.385 26.1206 40.4179 25.1723 39.7354L27.7829 34.2523C27.7889 34.2392 27.7917 34.2254 27.7973 34.2117C30.2671 33.252 32.2218 31.2137 33.1279 28.6497L39.5282 26.9457C39.9813 28.0444 40.7512 28.9657 41.7648 29.5847C42.6167 30.1046 43.5667 30.3708 44.5304 30.3708C44.9869 30.3708 45.4466 30.3113 45.9008 30.1905C47.3143 29.8143 48.5002 28.8924 49.2413 27.595C49.9813 26.2969 50.189 24.7785 49.8246 23.3189ZM22.466 4.39863C23.1318 2.34651 25.2865 1.23398 27.2738 1.92165C29.2584 2.60875 30.3319 4.83837 29.6678 6.89107C29.346 7.88564 28.6685 8.69069 27.7613 9.15791C26.8534 9.62456 25.8248 9.699 24.8627 9.36576C22.8765 8.67752 21.8019 6.44961 22.466 4.39863ZM25.4515 46.0876C25.0034 47.0277 24.2285 47.732 23.2681 48.0698C22.3093 48.4077 21.2779 48.3395 20.369 47.8763C19.4578 47.4131 18.7771 46.6115 18.4503 45.6186C18.124 44.6263 18.1916 43.5613 18.6403 42.62C19.0889 41.6787 19.8638 40.975 20.8232 40.6378C21.2236 40.4969 21.6357 40.427 22.0467 40.427C22.6211 40.427 23.1922 40.5633 23.7222 40.8336C23.7228 40.8336 23.7228 40.8336 23.7228 40.8336C24.6334 41.2968 25.3147 42.0978 25.6409 43.0895C25.9672 44.0807 25.9002 45.1457 25.4515 46.0876ZM4.25005 26.0982C2.26489 25.4089 1.192 23.1781 1.85889 21.126C2.18125 20.1325 2.85922 19.3281 3.76706 18.8614C4.30101 18.5871 4.87596 18.4486 5.45478 18.4486C5.86134 18.4486 6.27011 18.5167 6.6667 18.6541C8.6502 19.3424 9.72309 21.5714 9.05787 23.6236C8.39098 25.6763 6.23632 26.7871 4.25005 26.0982ZM24.6218 33.0986C20.5412 33.0986 17.2217 29.6666 17.2217 25.4478C17.2217 21.2296 20.5412 17.7981 24.6218 17.7981C28.7023 17.7981 32.0218 21.2296 32.0218 25.4478C32.0218 29.6666 28.7023 33.0986 24.6218 33.0986ZM47.8095 26.7212C47.2938 27.6236 46.4685 28.2649 45.4854 28.5266C44.5044 28.7876 43.483 28.6388 42.6095 28.1057C41.736 27.5726 41.1162 26.7195 40.8637 25.7037C40.3419 23.6075 41.5671 21.4638 43.5944 20.9244C43.9106 20.8402 44.2308 20.7985 44.5493 20.7985C45.2195 20.7985 45.8803 20.984 46.4729 21.3458C47.3453 21.8789 47.9646 22.7315 48.2161 23.7461C48.2161 23.7461 48.2166 23.7467 48.2166 23.7472C48.4686 24.7624 48.3246 25.8188 47.8095 26.7212Z" fill="#279876"/>
</svg>
