<svg width="26" height="26" viewBox="0 0 26 26" fill="none" xmlns="http://www.w3.org/2000/svg">
<path d="M16.6694 18.0743C16.5387 17.8456 16.2119 17.7802 15.9832 17.9109L12.9446 19.7733C11.9317 20.3614 10.6248 20.0673 9.97133 19.1198L5.8545 12.4218C5.26638 11.4743 5.56044 10.2 6.50797 9.61189L9.6446 7.65149C9.87331 7.5208 9.93866 7.19407 9.80797 6.96535L7.19411 2.71783C7.06341 2.48912 6.73668 2.42377 6.50797 2.55446L3.37133 4.51486C-0.124707 6.70397 0.00598592 12.3891 3.69807 18.3683C5.39708 21.1129 7.52084 23.302 9.67727 24.5109C10.7882 25.1644 12.0624 25.5564 13.3694 25.5891C14.3169 25.5891 15.2644 25.3277 16.0812 24.8376L19.0872 22.9753C19.3159 22.8446 19.3812 22.5178 19.2505 22.2891L16.6694 18.0743ZM15.5911 24.0208C13.6961 25.197 11.605 24.4782 10.1674 23.6941C8.14163 22.5178 6.14856 20.4594 4.5149 17.8782C1.14955 12.3891 0.888165 7.25941 3.92678 5.39704L6.67133 3.69803L8.76242 7.09605L6.01787 8.76238C4.61292 9.64456 4.15549 11.5069 5.03767 12.9446L9.1545 19.6426C10.102 21.0802 11.9971 21.505 13.4674 20.6228L16.0812 19.0218L18.1723 22.4198L15.5911 24.0208Z" fill="#1F65F7"/>
<path d="M12.9118 7.81486C15.591 7.97823 17.6168 10.2654 17.4534 12.9119C17.4207 13.3366 17.3554 13.7614 17.2247 14.1535C17.1267 14.4149 17.2901 14.6762 17.5514 14.7743C17.8128 14.8723 18.0742 14.7089 18.1722 14.4802C19.1851 11.4416 17.5514 8.1416 14.5128 7.12872C14.0227 6.96536 13.5326 6.86734 13.0099 6.83467C12.7485 6.80199 12.5198 6.99803 12.4871 7.29209C12.4544 7.58615 12.6504 7.81486 12.9118 7.81486Z" fill="#1F65F7"/>
<path d="M13.6961 3.27328C13.4347 3.2406 13.1733 3.43664 13.1406 3.69803C13.108 3.95942 13.304 4.2208 13.5654 4.25348C18.2377 4.77625 21.5704 8.9911 21.0149 13.598C20.9496 14.0555 20.8842 14.5129 20.7535 14.9703C20.6555 15.2317 20.8189 15.4931 21.0476 15.5911C21.309 15.6891 21.5704 15.5258 21.6684 15.297V15.2644C23.106 10.2654 20.1981 5.03763 15.1991 3.60001C14.7416 3.43664 14.2189 3.33862 13.6961 3.27328Z" fill="#1F65F7"/>
<path d="M23.2366 5.75642C21.2435 2.68513 18.0089 0.626718 14.3821 0.136619C14.1207 0.103946 13.8594 0.299985 13.8267 0.561372C13.794 0.822758 13.99 1.08414 14.2514 1.11682C20.6227 1.999 25.0663 7.91286 24.1841 14.2841C24.1188 14.7742 24.0207 15.2317 23.8901 15.6891C23.8247 15.9505 23.9881 16.2119 24.2495 16.2772C24.5108 16.3426 24.7722 16.1792 24.8376 15.9178C25.7851 12.4544 25.197 8.76236 23.2366 5.75642Z" fill="#1F65F7"/>
</svg>
