<svg width="33" height="37" viewBox="0 0 33 37" fill="none" xmlns="http://www.w3.org/2000/svg">
<path d="M32.7505 23.5347L24.996 11.2574L28.2871 6.10891C28.9888 5.07432 29.264 3.8088 29.0555 2.57624C28.9907 2.23034 28.857 1.90099 28.6624 1.60776C28.4679 1.31453 28.2163 1.0634 27.9228 0.869308L27.7406 0.750496C26.2634 -0.192078 24.105 0.623764 22.8297 2.61584L19.7366 7.43961L2.62377 5.85545C2.51556 5.84532 2.40664 5.86508 2.30888 5.91256C2.21112 5.96005 2.12825 6.03344 2.06931 6.12475L0.801985 8.08911C0.753239 8.16475 0.722313 8.25047 0.71154 8.33981C0.700767 8.42914 0.710431 8.51976 0.7398 8.60481C0.769169 8.68987 0.817477 8.76714 0.881077 8.8308C0.944676 8.89446 1.02191 8.94283 1.10694 8.97228L15.5426 13.9941L10.0693 22.5366L1.57426 23.3604C1.47211 23.3703 1.37428 23.4066 1.29029 23.4656C1.20631 23.5246 1.13905 23.6043 1.09505 23.697L0.421787 25.1188C0.382581 25.2019 0.363162 25.2929 0.365056 25.3847C0.36695 25.4765 0.390105 25.5666 0.432703 25.648C0.475302 25.7293 0.536183 25.7997 0.610564 25.8536C0.684946 25.9074 0.770803 25.9433 0.861391 25.9584L10.6634 27.6257L16.2792 35.8119C16.3308 35.8872 16.3992 35.9496 16.4788 35.9943C16.5585 36.0389 16.6474 36.0646 16.7386 36.0693H16.7663C16.8533 36.0692 16.9391 36.0499 17.0178 36.013C17.0965 35.976 17.1661 35.9222 17.2218 35.8554L18.2356 34.6673C18.3021 34.5885 18.3469 34.4938 18.3657 34.3924C18.3844 34.291 18.3765 34.1865 18.3426 34.0891L15.5307 26.0218L20.8535 17.705L30.5842 26.2673C30.6485 26.3235 30.7242 26.3652 30.8061 26.3895C30.888 26.4138 30.9742 26.4202 31.0588 26.4082C31.1433 26.3961 31.2243 26.366 31.2962 26.3198C31.3681 26.2737 31.4292 26.2125 31.4753 26.1406L32.7465 24.1604C32.8054 24.0668 32.8369 23.9586 32.8376 23.8481C32.8383 23.7375 32.8081 23.629 32.7505 23.5347ZM30.8495 24.9208L21.1188 16.3624C21.0545 16.3062 20.9788 16.2645 20.8969 16.2402C20.815 16.2159 20.7288 16.2095 20.6442 16.2215C20.5596 16.2336 20.4787 16.2637 20.4068 16.3099C20.3349 16.356 20.2738 16.4172 20.2277 16.4891L14.3743 25.6297C14.3261 25.7055 14.2957 25.7911 14.2855 25.8803C14.2752 25.9695 14.2852 26.0598 14.3149 26.1446L17.1109 34.1644L16.8178 34.5129L11.5347 26.798C11.4893 26.7331 11.4314 26.6779 11.3644 26.6356L11.2574 26.5723C11.1902 26.5284 11.1148 26.4987 11.0356 26.4851L1.81585 24.901L2.00991 24.5049L10.4654 23.6891C10.5548 23.6807 10.6413 23.6521 10.7181 23.6054C10.7949 23.5588 10.8602 23.4953 10.9089 23.4198L16.9485 13.998C16.9973 13.9224 17.0282 13.8367 17.039 13.7473C17.0497 13.658 17.0401 13.5674 17.0107 13.4823C16.9813 13.3973 16.933 13.32 16.8694 13.2563C16.8058 13.1927 16.7286 13.1443 16.6436 13.1149L2.20793 8.08911L2.87327 7.04753L19.9861 8.63168C20.0945 8.64318 20.2039 8.62404 20.3019 8.57643C20.4 8.52882 20.4826 8.45466 20.5406 8.36238L23.8238 3.25743C24.7228 1.87525 26.2079 1.18614 27.099 1.75248L27.2852 1.87525C27.6047 2.10138 27.8224 2.44427 27.8911 2.8297C28.0329 3.75457 27.8146 4.69858 27.2812 5.46733L23.796 10.9129C23.7354 11.0082 23.7033 11.1188 23.7033 11.2317C23.7033 11.3446 23.7354 11.4552 23.796 11.5505L31.5505 23.8277L30.8495 24.9208Z" fill="#FF4B6D"/>
</svg>
