<svg width="27" height="27" viewBox="0 0 27 27" fill="none" xmlns="http://www.w3.org/2000/svg">
<path d="M25.1089 21.9872V21.6891C25.1082 21.1075 24.9733 20.5339 24.7149 20.0128C24.4565 19.4918 24.0814 19.0373 23.6188 18.6847L23.5703 18.65L23.3416 18.5149C23.2003 17.714 23.1296 16.9023 23.1302 16.0891C23.1302 13.8159 26.0307 12.7278 26.0584 12.7174C26.1299 12.6915 26.1949 12.6504 26.2487 12.5968C26.3025 12.5431 26.344 12.4784 26.3701 12.407C26.3962 12.3356 26.4063 12.2594 26.3998 12.1837C26.3932 12.108 26.3702 12.0347 26.3322 11.9688L19.599 0.339139C19.5486 0.250167 19.473 0.178051 19.3818 0.131821C19.2906 0.0855903 19.1877 0.0672991 19.0862 0.0792375H8.26389C8.16505 0.068408 8.06517 0.0861581 7.97611 0.130382C7.88704 0.174606 7.81253 0.243449 7.76142 0.328742L0.771814 11.9654C0.732441 12.031 0.708047 12.1045 0.700375 12.1807C0.692703 12.2568 0.701942 12.3337 0.727432 12.4059C0.752922 12.4781 0.794035 12.5437 0.847832 12.5982C0.90163 12.6526 0.966786 12.6945 1.03865 12.7208C1.06637 12.7208 3.97033 13.8193 3.97033 16.0926C3.97111 16.8811 3.90504 17.6682 3.7728 18.4456L3.42627 18.6466L3.37775 18.6812C2.91536 19.0345 2.54068 19.4897 2.28284 20.0114C2.02501 20.5331 1.89096 21.1072 1.89112 21.6891V21.9872C1.36638 22.2778 0.928972 22.7036 0.624296 23.2203C0.31962 23.7371 0.158774 24.3259 0.158447 24.9258V26.2426C0.158447 26.3805 0.213212 26.5127 0.310694 26.6102C0.408175 26.7076 0.540389 26.7624 0.678249 26.7624H9.68815C9.82601 26.7624 9.95823 26.7076 10.0557 26.6102C10.1532 26.5127 10.208 26.3805 10.208 26.2426V25.3763H16.7921V26.2426C16.7921 26.3805 16.8469 26.5127 16.9444 26.6102C17.0418 26.7076 17.1741 26.7624 17.3119 26.7624H26.3218C26.4597 26.7624 26.5919 26.7076 26.6894 26.6102C26.7869 26.5127 26.8416 26.3805 26.8416 26.2426V24.9258C26.8413 24.3259 26.6804 23.7371 26.3758 23.2203C26.0711 22.7036 25.6337 22.2778 25.1089 21.9872ZM25.1436 11.9931C24.1248 12.499 22.0906 13.7951 22.0906 16.0961C22.0911 16.6751 22.1246 17.2536 22.1911 17.8287L18.5248 15.6733C18.3131 15.547 18.1378 15.3679 18.0163 15.1534C17.8948 14.9389 17.8312 14.6965 17.8317 14.45V12.1837L18.7708 11.1926C19.284 10.6497 19.5683 9.92981 19.5644 9.1827V2.3525L25.1436 11.9931ZM8.82181 1.11884H18.5248V9.1827C18.5275 9.66303 18.3451 10.1259 18.0154 10.4753L16.0471 12.5545H11.2995L9.33122 10.4753C9.00153 10.1259 8.8191 9.66303 8.82181 9.1827V1.11884ZM1.96736 11.9966L7.78221 2.31439V9.1827C7.77923 9.92861 8.06338 10.6471 8.57578 11.1891L9.16835 11.8164V14.457C9.16767 14.7023 9.10347 14.9433 8.98202 15.1564C8.86056 15.3696 8.68599 15.5476 8.47528 15.6733L4.91637 17.7525C4.97768 17.2025 5.00892 16.6495 5.00993 16.0961C5.00993 13.802 2.98964 12.506 1.96736 11.9966ZM3.97033 19.5302L8.98815 16.5778C9.35855 16.3611 9.66594 16.0514 9.87988 15.6795C10.0938 15.3075 10.2069 14.8861 10.208 14.457V12.901L10.6966 13.4174C10.7439 13.4713 10.8019 13.5148 10.8669 13.5453C10.9319 13.5757 11.0025 13.5923 11.0743 13.5941H16.2723C16.343 13.5941 16.413 13.5796 16.478 13.5516C16.5429 13.5236 16.6015 13.4826 16.65 13.4312L16.7921 13.2822V14.4604C16.7923 14.8876 16.9036 15.3074 17.115 15.6786C17.3264 16.0498 17.6307 16.3597 17.9981 16.5778L23.0297 19.5302C23.3451 19.7791 23.6018 20.0945 23.7815 20.4538C23.9612 20.8132 24.0595 21.2078 24.0693 21.6094C23.8747 21.5771 23.6775 21.562 23.4802 21.5644H20.1535C19.3649 21.5659 18.602 21.8443 17.9977 22.3509C17.3935 22.8576 16.9864 23.5604 16.8476 24.3367H10.1525C10.0136 23.5604 9.60656 22.8576 9.00233 22.3509C8.39811 21.8443 7.63512 21.5659 6.84657 21.5644H3.51983C3.32337 21.5657 3.1274 21.5842 2.93419 21.6198C2.94212 21.2167 3.03913 20.8203 3.21827 20.459C3.3974 20.0977 3.65422 19.7806 3.97033 19.5302ZM9.16835 25.7228H1.19805V24.9258C1.19805 24.31 1.44267 23.7194 1.87809 23.284C2.3135 22.8486 2.90406 22.604 3.51983 22.604H6.84657C7.46234 22.604 8.0529 22.8486 8.48831 23.284C8.92373 23.7194 9.16835 24.31 9.16835 24.9258V25.7228ZM25.802 25.7228H17.8317V24.9258C17.8317 24.31 18.0763 23.7194 18.5118 23.284C18.9472 22.8486 19.5377 22.604 20.1535 22.604H23.4802C24.096 22.604 24.6866 22.8486 25.122 23.284C25.5574 23.7194 25.802 24.31 25.802 24.9258V25.7228Z" fill="white"/>
</svg>
