<svg width="35" height="41" viewBox="0 0 35 41" fill="none" xmlns="http://www.w3.org/2000/svg">
<path d="M18.1881 24.0248C14.0022 24.0326 9.99027 25.7 7.03181 28.6612C4.07336 31.6224 2.40981 35.636 2.40588 39.8218C2.40588 40.0188 2.48412 40.2076 2.62338 40.3469C2.76264 40.4861 2.95152 40.5644 3.14846 40.5644H33.2475C33.4444 40.5644 33.6333 40.4861 33.7725 40.3469C33.9118 40.2076 33.99 40.0188 33.99 39.8218C33.9861 35.6325 32.3198 31.616 29.3571 28.6542C26.3944 25.6924 22.3773 24.0274 18.1881 24.0248ZM3.89103 39.0792C4.07172 35.4111 5.6561 31.9529 8.31612 29.4207C10.9761 26.8885 14.5081 25.4762 18.1806 25.4762C21.8532 25.4762 25.3851 26.8885 28.0452 29.4207C30.7052 31.9529 32.2896 35.4111 32.4702 39.0792H3.89103Z" fill="#BE8E57"/>
<path d="M17.9258 4.26233C16.1199 4.26135 14.3542 4.79603 12.8523 5.79873C11.3503 6.80143 10.1795 8.22709 9.48795 9.89535C8.7964 11.5636 8.61521 13.3995 8.96728 15.1708C9.31936 16.942 10.1889 18.569 11.4659 19.846C12.7428 21.123 14.3699 21.9925 16.1411 22.3446C17.9124 22.6967 19.7483 22.5155 21.4165 21.8239C23.0848 21.1324 24.5104 19.9616 25.5131 18.4596C26.5158 16.9576 27.0505 15.192 27.0495 13.3861C27.0469 10.9671 26.0848 8.64798 24.3744 6.93751C22.6639 5.22704 20.3447 4.26495 17.9258 4.26233ZM17.9258 21.0297C16.4138 21.0306 14.9355 20.5832 13.6779 19.7439C12.4203 18.9046 11.4398 17.7112 10.8605 16.3146C10.2812 14.918 10.1292 13.381 10.4235 11.8979C10.7179 10.4149 11.4455 9.0525 12.5143 7.98303C13.583 6.91356 14.945 6.18509 16.4278 5.88976C17.9107 5.59443 19.4478 5.74551 20.8448 6.32389C22.2417 6.90227 23.4358 7.88196 24.2759 9.13904C25.116 10.3961 25.5644 11.8741 25.5644 13.3861C25.5631 15.412 24.758 17.3547 23.326 18.7877C21.8939 20.2207 19.9517 21.027 17.9258 21.0297Z" fill="#BE8E57"/>
<path d="M6.70302 18.2871C6.89996 18.2871 7.08884 18.2089 7.2281 18.0696C7.36736 17.9303 7.44559 17.7415 7.44559 17.5445V9.3762C7.47065 9.34215 7.49221 9.30567 7.50995 9.26729C8.33164 7.18485 9.75891 5.39665 11.6074 4.13372C13.4558 2.87079 15.6405 2.19116 17.8792 2.18263C20.1178 2.1741 22.3076 2.83707 24.1656 4.08588C26.0236 5.33469 27.4645 7.11197 28.302 9.18808V17.5544C27.7529 18.9381 26.9313 20.1973 25.8862 21.2574C25.7471 21.3966 25.669 21.5854 25.669 21.7821C25.669 21.9789 25.7471 22.1677 25.8862 22.3069C26.0182 22.4382 26.1952 22.5143 26.3812 22.5198C26.4795 22.5201 26.5769 22.501 26.6678 22.4636C26.7587 22.4262 26.8413 22.3713 26.9109 22.3019C28.0689 21.1517 28.9934 19.7884 29.6337 18.2871H29.9901C31.3031 18.2871 32.5623 17.7655 33.4907 16.8371C34.4191 15.9087 34.9406 14.6496 34.9406 13.3366C34.9406 12.0236 34.4191 10.7645 33.4907 9.83607C32.5623 8.90767 31.3031 8.3861 29.9901 8.3861H29.5842C28.6046 6.11344 26.9809 4.17746 24.9134 2.81725C22.8459 1.45704 20.4253 0.732178 17.9505 0.732178C15.4758 0.732178 13.0552 1.45704 10.9877 2.81725C8.92024 4.17746 7.29646 6.11344 6.31688 8.3861H5.82183C4.50888 8.3861 3.2497 8.90767 2.3213 9.83607C1.39291 10.7645 0.871338 12.0236 0.871338 13.3366C0.871338 14.6496 1.39291 15.9087 2.3213 16.8371C3.2497 17.7655 4.50888 18.2871 5.82183 18.2871H6.70302ZM29.7921 9.87125H29.9703C30.8894 9.87125 31.7708 10.2364 32.4207 10.8862C33.0706 11.5361 33.4357 12.4175 33.4357 13.3366C33.4357 14.2557 33.0706 15.1371 32.4207 15.787C31.7708 16.4368 30.8894 16.8019 29.9703 16.8019H29.7921V9.87125ZM2.31688 13.3366C2.31688 12.4175 2.68198 11.5361 3.33186 10.8862C3.98174 10.2364 4.86316 9.87125 5.78223 9.87125H5.96045V16.8019H5.78223C4.86316 16.8019 3.98174 16.4368 3.33186 15.787C2.68198 15.1371 2.31688 14.2557 2.31688 13.3366Z" fill="#BE8E57"/>
</svg>
