<svg width="43" height="43" viewBox="0 0 43 43" fill="none" xmlns="http://www.w3.org/2000/svg">
<path d="M41.9554 26.3614L23.2079 7.6337C22.7271 7.14915 22.0737 6.875 21.3911 6.87132H8.85148C8.3263 6.87132 7.82263 7.07995 7.45127 7.45131C7.07991 7.82267 6.87128 8.32634 6.87128 8.85152V13.802C6.03713 13.3183 5.26989 12.7275 4.5891 12.0446C3.16203 10.6751 2.18193 8.9064 1.77722 6.97033C1.47524 5.29211 1.83168 3.85152 2.76732 2.91092C4.78712 0.896071 8.88118 1.7129 11.896 4.72775C12.0368 4.85892 12.223 4.93033 12.4154 4.92694C12.6077 4.92354 12.7913 4.84561 12.9273 4.70956C13.0634 4.57351 13.1413 4.38996 13.1447 4.19758C13.1481 4.0052 13.0767 3.81902 12.9455 3.67825C9.34653 0.0940906 4.31187 -0.722741 1.71782 1.87132C0.435638 3.16835 -0.0594118 5.07429 0.311875 7.24261C0.770115 9.47682 1.89359 11.5201 3.53465 13.104C4.50511 14.0809 5.63308 14.8876 6.87128 15.4901V21.3911C6.87496 22.0738 7.14911 22.7271 7.63366 23.208L26.3614 41.9555C26.5006 42.0945 26.6893 42.1726 26.8861 42.1726C27.0829 42.1726 27.2716 42.0945 27.4109 41.9555L41.9554 27.4109C42.0945 27.2717 42.1726 27.083 42.1726 26.8862C42.1726 26.6894 42.0945 26.5007 41.9554 26.3614ZM26.8861 40.3812L8.68316 22.1782C8.57948 22.0751 8.49723 21.9524 8.44116 21.8173C8.38508 21.6822 8.35629 21.5374 8.35643 21.3911V16.0693C8.6993 16.1754 9.04808 16.2614 9.40098 16.3268C9.86163 16.4107 10.3288 16.4538 10.797 16.4555C11.5261 16.4764 12.252 16.3514 12.9321 16.0878C13.6122 15.8243 14.2328 15.4275 14.7574 14.9208C14.8886 14.7801 14.96 14.5939 14.9566 14.4015C14.9532 14.2091 14.8753 14.0256 14.7392 13.8895C14.6032 13.7535 14.4196 13.6755 14.2272 13.6721C14.0349 13.6687 13.8487 13.7402 13.7079 13.8713C12.7673 14.8119 11.3267 15.1634 9.64851 14.8614C9.20869 14.7808 8.77647 14.6632 8.35643 14.5099V8.85152C8.35643 8.72022 8.40859 8.5943 8.50143 8.50146C8.59427 8.40862 8.72018 8.35647 8.85148 8.35647H21.3911C21.6862 8.3578 21.9689 8.47516 22.1782 8.6832L40.3812 26.8862L26.8861 40.3812Z" fill="#FF4B6D"/>
<path d="M22.6485 30.4951C22.7877 30.6341 22.9765 30.7122 23.1733 30.7122C23.37 30.7122 23.5588 30.6341 23.698 30.4951L26.5396 27.6634L29.3812 30.505C29.5219 30.6361 29.7081 30.7076 29.9005 30.7042C30.0929 30.7008 30.2764 30.6228 30.4125 30.4868C30.5485 30.3507 30.6265 30.1672 30.6299 29.9748C30.6333 29.7824 30.5618 29.5962 30.4307 29.4555L27.5891 26.6139L30.4307 23.7723C30.5712 23.6325 30.6504 23.4426 30.6508 23.2444C30.6513 23.0461 30.573 22.8559 30.4332 22.7154C30.3639 22.6458 30.2817 22.5906 30.1911 22.5528C30.1005 22.515 30.0034 22.4955 29.9052 22.4952C29.707 22.4948 29.5167 22.5731 29.3762 22.7129L26.5346 25.5545L23.703 22.7129C23.5622 22.5817 23.376 22.5103 23.1836 22.5137C22.9913 22.5171 22.8077 22.595 22.6717 22.7311C22.5356 22.8671 22.4577 23.0507 22.4543 23.2431C22.4509 23.4355 22.5223 23.6216 22.6535 23.7624L25.495 26.604L22.6485 29.4456C22.5094 29.5848 22.4313 29.7735 22.4313 29.9703C22.4313 30.1671 22.5094 30.3558 22.6485 30.4951Z" fill="#FF4B6D"/>
<path d="M31.3762 27.1684H33.8515C34.0484 27.1684 34.2373 27.0901 34.3766 26.9509C34.5158 26.8116 34.5941 26.6227 34.5941 26.4258C34.5941 26.2289 34.5158 26.04 34.3766 25.9007C34.2373 25.7615 34.0484 25.6832 33.8515 25.6832H31.3762C31.1793 25.6832 30.9904 25.7615 30.8512 25.9007C30.7119 26.04 30.6337 26.2289 30.6337 26.4258C30.6337 26.6227 30.7119 26.8116 30.8512 26.9509C30.9904 27.0901 31.1793 27.1684 31.3762 27.1684Z" fill="#FF4B6D"/>
<path d="M21.4752 25.6832H19C18.803 25.6832 18.6142 25.7615 18.4749 25.9007C18.3357 26.04 18.2574 26.2289 18.2574 26.4258C18.2574 26.6227 18.3357 26.8116 18.4749 26.9509C18.6142 27.0901 18.803 27.1684 19 27.1684H21.4752C21.6722 27.1684 21.8611 27.0901 22.0003 26.9509C22.1396 26.8116 22.2178 26.6227 22.2178 26.4258C22.2178 26.2289 22.1396 26.04 22.0003 25.9007C21.8611 25.7615 21.6722 25.6832 21.4752 25.6832Z" fill="#FF4B6D"/>
<path d="M26.4257 30.6337C26.2288 30.6337 26.0399 30.7119 25.9007 30.8512C25.7614 30.9904 25.6832 31.1793 25.6832 31.3762V33.8515C25.6832 34.0484 25.7614 34.2373 25.9007 34.3766C26.0399 34.5158 26.2288 34.5941 26.4257 34.5941C26.6227 34.5941 26.8116 34.5158 26.9508 34.3766C27.0901 34.2373 27.1683 34.0484 27.1683 33.8515V31.3762C27.1683 31.1793 27.0901 30.9904 26.9508 30.8512C26.8116 30.7119 26.6227 30.6337 26.4257 30.6337Z" fill="#FF4B6D"/>
<path d="M26.4257 22.7129C26.6227 22.7129 26.8116 22.6347 26.9508 22.4954C27.0901 22.3561 27.1683 22.1673 27.1683 21.9703V19C27.1683 18.8031 27.0901 18.6142 26.9508 18.4749C26.8116 18.3357 26.6227 18.2574 26.4257 18.2574C26.2288 18.2574 26.0399 18.3357 25.9007 18.4749C25.7614 18.6142 25.6832 18.8031 25.6832 19V21.9703C25.6832 22.1673 25.7614 22.3561 25.9007 22.4954C26.0399 22.6347 26.2288 22.7129 26.4257 22.7129Z" fill="#FF4B6D"/>
</svg>
