<svg width="27" height="29" viewBox="0 0 27 29" fill="none" xmlns="http://www.w3.org/2000/svg">
<path d="M13.8014 16.8951C13.6043 16.8392 13.3956 16.8392 13.1985 16.8951C13.0772 16.9505 10.2079 18.3193 10.2079 21.5248V27.9356C10.2079 28.0735 10.2627 28.2057 10.3601 28.3032C10.4576 28.4007 10.5898 28.4555 10.7277 28.4555C10.8655 28.4555 10.9978 28.4007 11.0952 28.3032C11.1927 28.2057 11.2475 28.0735 11.2475 27.9356V21.5248C11.2475 19.3139 12.9802 18.1876 13.5 17.9035C14.0198 18.1946 15.7524 19.3208 15.7524 21.5248V27.9356C15.7524 28.0735 15.8072 28.2057 15.9047 28.3032C16.0022 28.4007 16.1344 28.4555 16.2722 28.4555C16.4101 28.4555 16.5423 28.4007 16.6398 28.3032C16.7373 28.2057 16.792 28.0735 16.792 27.9356V21.5248C16.792 18.3193 13.9227 16.9505 13.8014 16.8951Z" fill="white"/>
<path d="M25.6287 14.594C25.4908 14.594 25.3586 14.6488 25.2611 14.7463C25.1636 14.8437 25.1089 14.9759 25.1089 15.1138V17.3663H22.6831V15.8796C22.7397 14.9556 22.4367 14.0454 21.8376 13.3396C21.2099 12.6836 20.3621 12.2825 19.4569 12.2133C19.7425 11.4048 19.8591 10.5463 19.7995 9.69098C19.7399 8.83562 19.5053 8.0016 19.1103 7.24054C17.8316 4.69698 15.0594 3.44599 14.0198 3.05787V0.559353C14.0198 0.421493 13.965 0.289279 13.8675 0.191797C13.77 0.0943155 13.6378 0.0395508 13.5 0.0395508C13.3621 0.0395508 13.2299 0.0943155 13.1324 0.191797C13.0349 0.289279 12.9802 0.421493 12.9802 0.559353V3.05787C11.9405 3.44599 9.16827 4.69698 7.89995 7.24054C7.505 8.0016 7.27045 8.83562 7.21085 9.69098C7.15124 10.5463 7.26784 11.4048 7.55342 12.2133C6.64818 12.2825 5.80039 12.6836 5.17273 13.3396C4.56986 14.0438 4.2631 14.9541 4.31679 15.8796V17.3663H1.89104V15.1138C1.89104 14.9759 1.83628 14.8437 1.7388 14.7463C1.64132 14.6488 1.5091 14.594 1.37124 14.594C1.23338 14.594 1.10117 14.6488 1.00369 14.7463C0.906205 14.8437 0.85144 14.9759 0.85144 15.1138V27.9356C0.85144 28.0734 0.906205 28.2057 1.00369 28.3031C1.10117 28.4006 1.23338 28.4554 1.37124 28.4554C1.5091 28.4554 1.64132 28.4006 1.7388 28.3031C1.83628 28.2057 1.89104 28.0734 1.89104 27.9356V18.4059H4.83659C4.97445 18.4059 5.10666 18.3511 5.20414 18.2536C5.30163 18.1562 5.35639 18.0239 5.35639 17.8861V15.8554C5.35639 15.8554 5.35639 15.8207 5.35639 15.8069C5.32127 15.1612 5.53173 14.5261 5.9455 14.0292C6.43758 13.4851 7.24154 13.2079 8.32619 13.2079C8.41842 13.2078 8.50898 13.1832 8.58855 13.1365C8.66813 13.0899 8.73387 13.023 8.77902 12.9425C8.82417 12.8621 8.84711 12.7711 8.84548 12.6789C8.84385 12.5867 8.81772 12.4966 8.76976 12.4178C8.39873 11.6853 8.20973 10.8742 8.21878 10.0532C8.22783 9.23224 8.43466 8.42551 8.82174 7.70143C9.97916 5.36925 12.7653 4.23609 13.4896 3.97618C14.2138 4.23609 16.9965 5.36232 18.1574 7.70143C19.45 10.3108 18.2717 12.3346 18.2198 12.4178C18.1713 12.4973 18.1451 12.5884 18.1439 12.6815C18.1427 12.7746 18.1666 12.8664 18.213 12.9471C18.2594 13.0279 18.3266 13.0947 18.4077 13.1405C18.4887 13.1864 18.5806 13.2097 18.6737 13.2079C19.7584 13.2079 20.5589 13.4851 21.0579 14.0292C21.4693 14.5259 21.6784 15.1594 21.6435 15.8034C21.6435 15.8207 21.6435 15.8381 21.6435 15.8554V17.8861C21.6435 18.0239 21.6983 18.1562 21.7958 18.2536C21.8932 18.3511 22.0255 18.4059 22.1633 18.4059H25.1089V27.9356C25.1089 28.0734 25.1636 28.2057 25.2611 28.3031C25.3586 28.4006 25.4908 28.4554 25.6287 28.4554C25.7665 28.4554 25.8987 28.4006 25.9962 28.3031C26.0937 28.2057 26.1485 28.0734 26.1485 27.9356V15.1138C26.1485 14.9759 26.0937 14.8437 25.9962 14.7463C25.8987 14.6488 25.7665 14.594 25.6287 14.594Z" fill="white"/>
<path d="M22.1634 22.2178C22.0255 22.2178 21.8933 22.2725 21.7958 22.37C21.6983 22.4675 21.6436 22.5997 21.6436 22.7376V27.9356C21.6436 28.0735 21.6983 28.2057 21.7958 28.3032C21.8933 28.4006 22.0255 28.4554 22.1634 28.4554C22.3012 28.4554 22.4334 28.4006 22.5309 28.3032C22.6284 28.2057 22.6832 28.0735 22.6832 27.9356V22.7376C22.6832 22.5997 22.6284 22.4675 22.5309 22.37C22.4334 22.2725 22.3012 22.2178 22.1634 22.2178Z" fill="white"/>
<path d="M4.83657 22.2178C4.69871 22.2178 4.5665 22.2725 4.46902 22.37C4.37154 22.4675 4.31677 22.5997 4.31677 22.7376V27.9356C4.31677 28.0735 4.37154 28.2057 4.46902 28.3032C4.5665 28.4006 4.69871 28.4554 4.83657 28.4554C4.97443 28.4554 5.10665 28.4006 5.20413 28.3032C5.30161 28.2057 5.35637 28.0735 5.35637 27.9356V22.7376C5.35637 22.5997 5.30161 22.4675 5.20413 22.37C5.10665 22.2725 4.97443 22.2178 4.83657 22.2178Z" fill="white"/>
<path d="M16.6188 12.1683H10.7277C10.5898 12.1683 10.4576 12.2231 10.3601 12.3206C10.2627 12.4181 10.2079 12.5503 10.2079 12.6881C10.2079 12.826 10.2627 12.9582 10.3601 13.0557C10.4576 13.1532 10.5898 13.2079 10.7277 13.2079H16.6188C16.7566 13.2079 16.8889 13.1532 16.9863 13.0557C17.0838 12.9582 17.1386 12.826 17.1386 12.6881C17.1386 12.5503 17.0838 12.4181 16.9863 12.3206C16.8889 12.2231 16.7566 12.1683 16.6188 12.1683Z" fill="white"/>
</svg>
