<svg width="23" height="23" viewBox="0 0 23 23" fill="none" xmlns="http://www.w3.org/2000/svg">
<path d="M11.5 0C5.14879 0 0 5.14879 0 11.5C0 17.8512 5.14879 23 11.5 23C17.8512 23 23 17.8512 23 11.5C23 5.14879 17.8512 0 11.5 0ZM17.8843 8.75606V9.15532C17.8843 13.1476 14.8902 17.6721 9.36754 17.6721C7.63759 17.6721 6.10728 17.2064 4.77635 16.3414C5.04244 16.4079 5.24207 16.4079 5.50816 16.4079C6.90555 16.4079 8.23624 15.9422 9.23438 15.1437C7.90368 15.1437 6.83909 14.2787 6.43983 13.0809C6.57299 13.1474 6.77262 13.1474 6.97225 13.1474C7.23834 13.1474 7.50443 13.0809 7.77076 13.0142C6.37337 12.7481 5.37547 11.5504 5.37547 10.0865V10.0201C5.77472 10.2861 6.24044 10.4193 6.70616 10.4193C5.90765 9.88689 5.37547 9.02192 5.37547 7.95732C5.37547 7.35844 5.50863 6.89272 5.77472 6.42701C7.30504 8.22341 9.50093 9.42118 11.9627 9.55434C11.8962 9.35471 11.8962 9.15508 11.8962 8.88899C11.8962 7.22551 13.2269 5.89482 14.8904 5.89482C15.7554 5.89482 16.5539 6.22761 17.0861 6.82626C17.8179 6.6931 18.4167 6.42701 19.0156 6.09445C18.7495 6.82626 18.2838 7.35868 17.6849 7.75793C18.2838 7.69146 18.8827 7.5583 19.4149 7.29221C19.0156 7.89109 18.5497 8.42327 17.8843 8.75606Z" fill="#273043"/>
</svg>
